<svg width="22" height="27" viewBox="0 0 22 27" fill="none" xmlns="http://www.w3.org/2000/svg">
<path d="M19.7941 23.3333C18.6874 24.9867 17.5141 26.6 15.7274 26.6267C13.9408 26.6667 13.3674 25.5733 11.3408 25.5733C9.30078 25.5733 8.67412 26.6 6.98078 26.6667C5.23412 26.7333 3.91412 24.9067 2.79412 23.2933C0.51412 20 -1.23255 13.9333 1.11412 9.85334C2.27412 7.82667 4.35412 6.54667 6.60745 6.50667C8.31412 6.48 9.94078 7.66667 10.9941 7.66667C12.0341 7.66667 14.0075 6.24 16.0741 6.45333C16.9408 6.49333 19.3674 6.8 20.9274 9.09334C20.8074 9.17334 18.0341 10.8 18.0608 14.1733C18.1008 18.2 21.5941 19.5467 21.6341 19.56C21.5941 19.6533 21.0741 21.48 19.7941 23.3333ZM12.1808 2C13.1541 0.893334 14.7674 0.0533333 16.1008 0C16.2741 1.56 15.6474 3.13333 14.7141 4.25333C13.7941 5.38667 12.2741 6.26667 10.7808 6.14667C10.5808 4.61333 11.3275 3.01333 12.1808 2Z" fill="white"/>
</svg>
