<svg width="178" height="181" viewBox="0 0 178 181" fill="none" xmlns="http://www.w3.org/2000/svg">
<path fill-rule="evenodd" clip-rule="evenodd" d="M60.2005 100.25C53.3571 103.378 48.3438 110.818 48.3438 119.691C48.3438 128.755 52.053 135.741 57.3704 141.729C61.753 146.664 67.0582 150.754 72.2321 154.743C73.461 155.69 74.6825 156.632 75.8824 157.578C78.0523 159.288 79.9879 160.79 81.8536 161.88C83.7203 162.971 85.2229 163.469 86.5 163.469C87.7771 163.469 89.2797 162.971 91.1464 161.88C93.012 160.79 94.9477 159.288 97.1176 157.578C98.3175 156.632 99.539 155.69 100.768 154.743C105.942 150.754 111.247 146.664 115.63 141.729C120.947 135.741 124.656 128.755 124.656 119.691C124.656 110.818 119.643 103.378 112.8 100.25C106.151 97.2108 97.2181 98.0156 88.729 106.836C88.1458 107.441 87.341 107.784 86.5 107.784C85.659 107.784 84.8542 107.441 84.271 106.836C75.7819 98.0156 66.8488 97.2108 60.2005 100.25ZM86.5 100.393C76.9628 91.8597 66.2832 90.6661 57.6281 94.6223C48.4869 98.8008 42.1562 108.503 42.1562 119.691C42.1562 130.686 46.737 139.074 52.744 145.838C57.5544 151.254 63.4422 155.788 68.6422 159.792C69.8209 160.699 70.9643 161.58 72.0519 162.437C74.1648 164.103 76.4331 165.879 78.7319 167.222C81.0297 168.565 83.6521 169.656 86.5 169.656C89.3479 169.656 91.9703 168.565 94.2681 167.222C96.5669 165.879 98.8352 164.103 100.948 162.437C102.036 161.58 103.179 160.699 104.358 159.792C109.558 155.788 115.446 151.254 120.256 145.838C126.263 139.074 130.844 130.686 130.844 119.691C130.844 108.503 124.513 98.8008 115.372 94.6223C106.717 90.6661 96.0372 91.8597 86.5 100.393Z" fill="#FC4B4E"/>
<path fill-rule="evenodd" clip-rule="evenodd" d="M114.873 13.2726C109.896 15.5475 106.25 20.9587 106.25 27.4113C106.25 34.0035 108.948 39.0847 112.815 43.4393C116.002 47.0283 119.861 50.0029 123.623 52.9038C124.517 53.5928 125.405 54.2777 126.278 54.9656C127.856 56.2097 129.264 57.3016 130.621 58.0944C131.978 58.8878 133.071 59.25 134 59.25C134.929 59.25 136.022 58.8878 137.379 58.0944C138.736 57.3016 140.144 56.2097 141.722 54.9656C142.595 54.2777 143.483 53.5928 144.377 52.9038C148.139 50.0029 151.998 47.0283 155.185 43.4393C159.052 39.0847 161.75 34.0035 161.75 27.4113C161.75 20.9587 158.104 15.5475 153.127 13.2726C148.292 11.0624 141.795 11.6477 135.621 18.0622C135.197 18.5029 134.612 18.7519 134 18.7519C133.388 18.7519 132.803 18.5029 132.379 18.0622C126.205 11.6477 119.708 11.0624 114.873 13.2726ZM134 13.3764C127.064 7.1707 119.297 6.30259 113.002 9.17986C106.354 12.2187 101.75 19.2751 101.75 27.4113C101.75 35.4079 105.081 41.5081 109.45 46.4274C112.949 50.3668 117.231 53.6638 121.012 56.5757C121.87 57.2358 122.701 57.8761 123.492 58.4996C125.029 59.711 126.679 61.0028 128.35 61.9797C130.022 62.9562 131.929 63.75 134 63.75C136.071 63.75 137.978 62.9562 139.65 61.9797C141.321 61.0028 142.971 59.711 144.508 58.4996C145.299 57.8761 146.13 57.2358 146.988 56.5757C150.769 53.6638 155.051 50.3668 158.55 46.4274C162.919 41.5081 166.25 35.4079 166.25 27.4113C166.25 19.2751 161.646 12.2187 154.998 9.17986C148.703 6.30259 140.936 7.1707 134 13.3764Z" fill="#FC4B4E"/>
<path fill-rule="evenodd" clip-rule="evenodd" d="M12.8892 53.1388C9.0873 54.8767 6.30208 59.0102 6.30208 63.9392C6.30208 68.9749 8.36279 72.8564 11.3169 76.1828C13.7517 78.9245 16.699 81.1967 19.5734 83.4127C20.2561 83.939 20.9347 84.4622 21.6014 84.9877C22.8068 85.938 23.8822 86.7721 24.9187 87.3778C25.9557 87.9838 26.7905 88.2605 27.5 88.2605C28.2095 88.2605 29.0443 87.9838 30.0813 87.3778C31.1178 86.7721 32.1932 85.938 33.3986 84.9877C34.0653 84.4622 34.7439 83.939 35.4266 83.4127C38.301 81.1967 41.2483 78.9245 43.6831 76.1828C46.6372 72.8564 48.6979 68.9749 48.6979 63.9392C48.6979 59.0102 45.9127 54.8767 42.1108 53.1388C38.4173 51.4505 33.4545 51.8976 28.7383 56.7976C28.4143 57.1342 27.9672 57.3244 27.5 57.3244C27.0328 57.3244 26.5857 57.1342 26.2617 56.7976C21.5455 51.8976 16.5827 51.4505 12.8892 53.1388ZM27.5 53.2182C22.2015 48.4777 16.2685 47.8145 11.4601 50.0125C6.38163 52.3338 2.86458 57.7241 2.86458 63.9392C2.86458 70.0477 5.40947 74.7077 8.74664 78.4654C11.4191 81.4747 14.6901 83.9933 17.579 86.2176C18.2338 86.7219 18.8691 87.211 19.4732 87.6873C20.6471 88.6126 21.9073 89.5994 23.1844 90.3457C24.4609 91.0916 25.9178 91.698 27.5 91.698C29.0822 91.698 30.5391 91.0916 31.8156 90.3457C33.0927 89.5994 34.3529 88.6126 35.5267 87.6873C36.1309 87.211 36.7662 86.7219 37.421 86.2176C40.3099 83.9933 43.5809 81.4747 46.2534 78.4654C49.5905 74.7077 52.1354 70.0477 52.1354 63.9392C52.1354 57.7241 48.6184 52.3338 43.5399 50.0125C38.7315 47.8145 32.7985 48.4777 27.5 53.2182Z" fill="#FC4B4E"/>
<rect x="161" y="96" width="10" height="7" rx="3.5" transform="rotate(-90 161 96)" fill="#FC4B4E"/>
<rect x="167.5" y="95.5" width="10" height="7" rx="3.5" fill="#FC4B4E"/>
<rect x="168" y="102" width="10" height="7" rx="3.5" transform="rotate(90 168 102)" fill="#FC4B4E"/>
<rect x="161.5" y="102.5" width="10" height="7" rx="3.5" transform="rotate(180 161.5 102.5)" fill="#FC4B4E"/>
<rect x="51.5" y="27" width="10" height="7" rx="3.5" transform="rotate(-90 51.5 27)" fill="#FC4B4E"/>
<rect x="58" y="26.5" width="10" height="7" rx="3.5" fill="#FC4B4E"/>
<rect x="58.5" y="33" width="10" height="7" rx="3.5" transform="rotate(90 58.5 33)" fill="#FC4B4E"/>
<rect x="52" y="33.5" width="10" height="7" rx="3.5" transform="rotate(180 52 33.5)" fill="#FC4B4E"/>
<rect x="11.5" y="136" width="10" height="7" rx="3.5" transform="rotate(-90 11.5 136)" fill="#FC4B4E"/>
<rect x="18" y="135.5" width="10" height="7" rx="3.5" fill="#FC4B4E"/>
<rect x="18.5" y="142" width="10" height="7" rx="3.5" transform="rotate(90 18.5 142)" fill="#FC4B4E"/>
<rect x="12" y="142.5" width="10" height="7" rx="3.5" transform="rotate(180 12 142.5)" fill="#FC4B4E"/>
</svg>
