<svg width="337" height="190" viewBox="0 0 337 190" fill="none" xmlns="http://www.w3.org/2000/svg">
<path d="M22.75 0.75V33.25C22.75 36.5637 25.4363 39.25 28.75 39.25H330.25C333.564 39.25 336.25 41.9363 336.25 45.25V93.75C336.25 97.0637 333.564 99.75 330.25 99.75H6.75001C3.4363 99.75 0.75 102.436 0.75 105.75V155.25C0.75 158.564 3.43629 161.25 6.75 161.25H39.75" stroke="url(#paint0_linear_1131_4789)" stroke-width="1.5" stroke-linecap="round"/>
<g filter="url(#filter0_d_1131_4789)">
<rect x="28" y="141.25" width="281" height="36" rx="4" fill="white" shape-rendering="crispEdges"/>
<path d="M44.275 160.075C44.3583 160.075 46.2917 160.158 47.4417 159.875H47.45C48.775 159.55 50.6167 158.617 51.0917 155.567C51.0917 155.567 52.15 151.75 46.9 151.75H42.3917C41.9833 151.75 41.6333 152.05 41.5667 152.45L39.65 164.583C39.6083 164.833 39.8083 165.067 40.0583 165.067H42.9167L43.6167 160.633C43.6667 160.317 43.9417 160.075 44.275 160.075Z" fill="#011F63"/>
<path d="M51.825 156.158C51.15 159.267 49.025 160.908 45.6417 160.908H44.4167L43.5583 166.342C43.525 166.558 43.6917 166.75 43.9083 166.75H45.4917C45.775 166.75 46.025 166.542 46.0667 166.258C46.1333 165.925 46.5 163.492 46.575 163.075C46.6167 162.792 46.8667 162.583 47.15 162.583H47.5167C49.8667 162.583 51.7083 161.625 52.25 158.867C52.4667 157.75 52.35 156.833 51.825 156.158Z" fill="#0296D7"/>
<path d="M62.16 159.106H66.6V159.862H62.16V159.106ZM62.256 162.982H67.308V163.75H61.368V155.35H67.128V156.118H62.256V162.982ZM73.0696 163.75V162.358L73.0336 162.13V159.802C73.0336 159.266 72.8816 158.854 72.5776 158.566C72.2816 158.278 71.8376 158.134 71.2456 158.134C70.8376 158.134 70.4496 158.202 70.0816 158.338C69.7136 158.474 69.4016 158.654 69.1456 158.878L68.7616 158.242C69.0816 157.97 69.4656 157.762 69.9136 157.618C70.3616 157.466 70.8336 157.39 71.3296 157.39C72.1456 157.39 72.7736 157.594 73.2136 158.002C73.6616 158.402 73.8856 159.014 73.8856 159.838V163.75H73.0696ZM70.8976 163.81C70.4256 163.81 70.0136 163.734 69.6616 163.582C69.3176 163.422 69.0536 163.206 68.8696 162.934C68.6856 162.654 68.5936 162.334 68.5936 161.974C68.5936 161.646 68.6696 161.35 68.8216 161.086C68.9816 160.814 69.2376 160.598 69.5896 160.438C69.9496 160.27 70.4296 160.186 71.0296 160.186H73.2016V160.822H71.0536C70.4456 160.822 70.0216 160.93 69.7816 161.146C69.5496 161.362 69.4336 161.63 69.4336 161.95C69.4336 162.31 69.5736 162.598 69.8536 162.814C70.1336 163.03 70.5256 163.138 71.0296 163.138C71.5096 163.138 71.9216 163.03 72.2656 162.814C72.6176 162.59 72.8736 162.27 73.0336 161.854L73.2256 162.442C73.0656 162.858 72.7856 163.19 72.3856 163.438C71.9936 163.686 71.4976 163.81 70.8976 163.81ZM77.8917 163.81C77.3717 163.81 76.8797 163.738 76.4157 163.594C75.9517 163.442 75.5877 163.254 75.3237 163.03L75.7077 162.358C75.9637 162.55 76.2917 162.718 76.6917 162.862C77.0917 162.998 77.5117 163.066 77.9517 163.066C78.5517 163.066 78.9837 162.974 79.2477 162.79C79.5117 162.598 79.6437 162.346 79.6437 162.034C79.6437 161.802 79.5677 161.622 79.4157 161.494C79.2717 161.358 79.0797 161.258 78.8397 161.194C78.5997 161.122 78.3317 161.062 78.0357 161.014C77.7397 160.966 77.4437 160.91 77.1477 160.846C76.8597 160.782 76.5957 160.69 76.3557 160.57C76.1157 160.442 75.9197 160.27 75.7677 160.054C75.6237 159.838 75.5517 159.55 75.5517 159.19C75.5517 158.846 75.6477 158.538 75.8397 158.266C76.0317 157.994 76.3117 157.782 76.6797 157.63C77.0557 157.47 77.5117 157.39 78.0477 157.39C78.4557 157.39 78.8637 157.446 79.2717 157.558C79.6797 157.662 80.0157 157.802 80.2797 157.978L79.9077 158.662C79.6277 158.47 79.3277 158.334 79.0077 158.254C78.6877 158.166 78.3677 158.122 78.0477 158.122C77.4797 158.122 77.0597 158.222 76.7877 158.422C76.5237 158.614 76.3917 158.862 76.3917 159.166C76.3917 159.406 76.4637 159.594 76.6077 159.73C76.7597 159.866 76.9557 159.974 77.1957 160.054C77.4437 160.126 77.7117 160.186 77.9997 160.234C78.2957 160.282 78.5877 160.342 78.8757 160.414C79.1717 160.478 79.4397 160.57 79.6797 160.69C79.9277 160.802 80.1237 160.966 80.2677 161.182C80.4197 161.39 80.4957 161.666 80.4957 162.01C80.4957 162.378 80.3917 162.698 80.1837 162.97C79.9837 163.234 79.6877 163.442 79.2957 163.594C78.9117 163.738 78.4437 163.81 77.8917 163.81ZM81.9899 166.138C81.6939 166.138 81.4099 166.09 81.1379 165.994C80.8739 165.898 80.6459 165.754 80.4539 165.562L80.8499 164.926C81.0099 165.078 81.1819 165.194 81.3659 165.274C81.5579 165.362 81.7699 165.406 82.0019 165.406C82.2819 165.406 82.5219 165.326 82.7219 165.166C82.9299 165.014 83.1259 164.742 83.3099 164.35L83.7179 163.426L83.8139 163.294L86.4059 157.45H87.2459L84.0899 164.506C83.9139 164.914 83.7179 165.238 83.5019 165.478C83.2939 165.718 83.0659 165.886 82.8179 165.982C82.5699 166.086 82.2939 166.138 81.9899 166.138ZM83.6699 163.93L80.7659 157.45H81.6539L84.2219 163.234L83.6699 163.93ZM95.5344 163.75V162.358L95.4984 162.13V159.802C95.4984 159.266 95.3464 158.854 95.0424 158.566C94.7464 158.278 94.3024 158.134 93.7104 158.134C93.3024 158.134 92.9144 158.202 92.5464 158.338C92.1784 158.474 91.8664 158.654 91.6104 158.878L91.2264 158.242C91.5464 157.97 91.9304 157.762 92.3784 157.618C92.8264 157.466 93.2984 157.39 93.7944 157.39C94.6104 157.39 95.2384 157.594 95.6784 158.002C96.1264 158.402 96.3504 159.014 96.3504 159.838V163.75H95.5344ZM93.3624 163.81C92.8904 163.81 92.4784 163.734 92.1264 163.582C91.7824 163.422 91.5184 163.206 91.3344 162.934C91.1504 162.654 91.0584 162.334 91.0584 161.974C91.0584 161.646 91.1344 161.35 91.2864 161.086C91.4464 160.814 91.7024 160.598 92.0544 160.438C92.4144 160.27 92.8944 160.186 93.4944 160.186H95.6664V160.822H93.5184C92.9104 160.822 92.4864 160.93 92.2464 161.146C92.0144 161.362 91.8984 161.63 91.8984 161.95C91.8984 162.31 92.0384 162.598 92.3184 162.814C92.5984 163.03 92.9904 163.138 93.4944 163.138C93.9744 163.138 94.3864 163.03 94.7304 162.814C95.0824 162.59 95.3384 162.27 95.4984 161.854L95.6904 162.442C95.5304 162.858 95.2504 163.19 94.8504 163.438C94.4584 163.686 93.9624 163.81 93.3624 163.81ZM101.881 157.39C102.393 157.39 102.841 157.49 103.225 157.69C103.617 157.882 103.921 158.178 104.137 158.578C104.361 158.978 104.473 159.482 104.473 160.09V163.75H103.621V160.174C103.621 159.51 103.453 159.01 103.117 158.674C102.789 158.33 102.325 158.158 101.725 158.158C101.277 158.158 100.885 158.25 100.549 158.434C100.221 158.61 99.9646 158.87 99.7806 159.214C99.6046 159.55 99.5166 159.958 99.5166 160.438V163.75H98.6646V157.45H99.4806V159.178L99.3486 158.854C99.5486 158.398 99.8686 158.042 100.309 157.786C100.749 157.522 101.273 157.39 101.881 157.39ZM109.282 163.81C108.682 163.81 108.142 163.674 107.662 163.402C107.19 163.13 106.818 162.754 106.546 162.274C106.274 161.786 106.138 161.226 106.138 160.594C106.138 159.954 106.274 159.394 106.546 158.914C106.818 158.434 107.19 158.062 107.662 157.798C108.142 157.526 108.682 157.39 109.282 157.39C109.834 157.39 110.326 157.514 110.758 157.762C111.198 158.01 111.546 158.374 111.802 158.854C112.066 159.326 112.198 159.906 112.198 160.594C112.198 161.274 112.07 161.854 111.814 162.334C111.558 162.814 111.21 163.182 110.77 163.438C110.338 163.686 109.842 163.81 109.282 163.81ZM109.342 163.054C109.79 163.054 110.19 162.954 110.542 162.754C110.902 162.546 111.182 162.258 111.382 161.89C111.59 161.514 111.694 161.082 111.694 160.594C111.694 160.098 111.59 159.666 111.382 159.298C111.182 158.93 110.902 158.646 110.542 158.446C110.19 158.238 109.79 158.134 109.342 158.134C108.902 158.134 108.506 158.238 108.154 158.446C107.802 158.646 107.522 158.93 107.314 159.298C107.106 159.666 107.002 160.098 107.002 160.594C107.002 161.082 107.106 161.514 107.314 161.89C107.522 162.258 107.802 162.546 108.154 162.754C108.506 162.954 108.902 163.054 109.342 163.054ZM111.718 163.75V161.854L111.802 160.582L111.682 159.31V154.846H112.534V163.75H111.718ZM119.739 163.81C119.219 163.81 118.727 163.738 118.263 163.594C117.799 163.442 117.435 163.254 117.171 163.03L117.555 162.358C117.811 162.55 118.139 162.718 118.539 162.862C118.939 162.998 119.359 163.066 119.799 163.066C120.399 163.066 120.831 162.974 121.095 162.79C121.359 162.598 121.491 162.346 121.491 162.034C121.491 161.802 121.415 161.622 121.263 161.494C121.119 161.358 120.927 161.258 120.687 161.194C120.447 161.122 120.179 161.062 119.883 161.014C119.587 160.966 119.291 160.91 118.995 160.846C118.707 160.782 118.443 160.69 118.203 160.57C117.963 160.442 117.767 160.27 117.615 160.054C117.471 159.838 117.399 159.55 117.399 159.19C117.399 158.846 117.495 158.538 117.687 158.266C117.879 157.994 118.159 157.782 118.527 157.63C118.903 157.47 119.359 157.39 119.895 157.39C120.303 157.39 120.711 157.446 121.119 157.558C121.527 157.662 121.863 157.802 122.127 157.978L121.755 158.662C121.475 158.47 121.175 158.334 120.855 158.254C120.535 158.166 120.215 158.122 119.895 158.122C119.327 158.122 118.907 158.222 118.635 158.422C118.371 158.614 118.239 158.862 118.239 159.166C118.239 159.406 118.311 159.594 118.455 159.73C118.607 159.866 118.803 159.974 119.043 160.054C119.291 160.126 119.559 160.186 119.847 160.234C120.143 160.282 120.435 160.342 120.723 160.414C121.019 160.478 121.287 160.57 121.527 160.69C121.775 160.802 121.971 160.966 122.115 161.182C122.267 161.39 122.343 161.666 122.343 162.01C122.343 162.378 122.239 162.698 122.031 162.97C121.831 163.234 121.535 163.442 121.143 163.594C120.759 163.738 120.291 163.81 119.739 163.81ZM127.855 163.75V162.358L127.819 162.13V159.802C127.819 159.266 127.667 158.854 127.363 158.566C127.067 158.278 126.623 158.134 126.031 158.134C125.623 158.134 125.235 158.202 124.867 158.338C124.499 158.474 124.187 158.654 123.931 158.878L123.547 158.242C123.867 157.97 124.251 157.762 124.699 157.618C125.147 157.466 125.619 157.39 126.115 157.39C126.931 157.39 127.559 157.594 127.999 158.002C128.447 158.402 128.671 159.014 128.671 159.838V163.75H127.855ZM125.683 163.81C125.211 163.81 124.799 163.734 124.447 163.582C124.103 163.422 123.839 163.206 123.655 162.934C123.471 162.654 123.379 162.334 123.379 161.974C123.379 161.646 123.455 161.35 123.607 161.086C123.767 160.814 124.023 160.598 124.375 160.438C124.735 160.27 125.215 160.186 125.815 160.186H127.987V160.822H125.839C125.231 160.822 124.807 160.93 124.567 161.146C124.335 161.362 124.219 161.63 124.219 161.95C124.219 162.31 124.359 162.598 124.639 162.814C124.919 163.03 125.311 163.138 125.815 163.138C126.295 163.138 126.707 163.03 127.051 162.814C127.403 162.59 127.659 162.27 127.819 161.854L128.011 162.442C127.851 162.858 127.571 163.19 127.171 163.438C126.779 163.686 126.283 163.81 125.683 163.81ZM131.129 163.75V156.658C131.129 156.098 131.293 155.646 131.621 155.302C131.949 154.958 132.421 154.786 133.037 154.786C133.277 154.786 133.509 154.818 133.733 154.882C133.957 154.946 134.145 155.046 134.297 155.182L134.009 155.818C133.889 155.714 133.749 155.638 133.589 155.59C133.429 155.534 133.257 155.506 133.073 155.506C132.713 155.506 132.437 155.606 132.245 155.806C132.053 156.006 131.957 156.302 131.957 156.694V157.654L131.981 158.05V163.75H131.129ZM130.001 158.158V157.45H133.901V158.158H130.001ZM137.622 163.81C136.966 163.81 136.39 163.674 135.894 163.402C135.398 163.122 135.01 162.742 134.73 162.262C134.45 161.774 134.31 161.218 134.31 160.594C134.31 159.97 134.442 159.418 134.706 158.938C134.978 158.458 135.346 158.082 135.81 157.81C136.282 157.53 136.81 157.39 137.394 157.39C137.986 157.39 138.51 157.526 138.966 157.798C139.43 158.062 139.794 158.438 140.058 158.926C140.322 159.406 140.454 159.962 140.454 160.594C140.454 160.634 140.45 160.678 140.442 160.726C140.442 160.766 140.442 160.81 140.442 160.858H134.958V160.222H139.986L139.65 160.474C139.65 160.018 139.55 159.614 139.35 159.262C139.158 158.902 138.894 158.622 138.558 158.422C138.222 158.222 137.834 158.122 137.394 158.122C136.962 158.122 136.574 158.222 136.23 158.422C135.886 158.622 135.618 158.902 135.426 159.262C135.234 159.622 135.138 160.034 135.138 160.498V160.63C135.138 161.11 135.242 161.534 135.45 161.902C135.666 162.262 135.962 162.546 136.338 162.754C136.722 162.954 137.158 163.054 137.646 163.054C138.03 163.054 138.386 162.986 138.714 162.85C139.05 162.714 139.338 162.506 139.578 162.226L140.058 162.778C139.778 163.114 139.426 163.37 139.002 163.546C138.586 163.722 138.126 163.81 137.622 163.81ZM146.613 163.75L144.237 157.45H145.053L147.213 163.294H146.841L149.061 157.45H149.793L151.989 163.294H151.617L153.813 157.45H154.593L152.205 163.75H151.401L149.289 158.254H149.541L147.417 163.75H146.613ZM155.876 163.75V157.45H156.728V163.75H155.876ZM156.308 156.058C156.132 156.058 155.984 155.998 155.864 155.878C155.744 155.758 155.684 155.614 155.684 155.446C155.684 155.278 155.744 155.138 155.864 155.026C155.984 154.906 156.132 154.846 156.308 154.846C156.484 154.846 156.632 154.902 156.752 155.014C156.872 155.126 156.932 155.266 156.932 155.434C156.932 155.61 156.872 155.758 156.752 155.878C156.64 155.998 156.492 156.058 156.308 156.058ZM161.09 163.81C160.498 163.81 160.042 163.65 159.722 163.33C159.402 163.01 159.242 162.558 159.242 161.974V156.058H160.094V161.926C160.094 162.294 160.186 162.578 160.37 162.778C160.562 162.978 160.834 163.078 161.186 163.078C161.562 163.078 161.874 162.97 162.122 162.754L162.422 163.366C162.254 163.518 162.05 163.63 161.81 163.702C161.578 163.774 161.338 163.81 161.09 163.81ZM158.114 158.158V157.45H162.014V158.158H158.114ZM167.189 157.39C167.701 157.39 168.149 157.49 168.533 157.69C168.925 157.882 169.229 158.178 169.445 158.578C169.669 158.978 169.781 159.482 169.781 160.09V163.75H168.929V160.174C168.929 159.51 168.761 159.01 168.425 158.674C168.097 158.33 167.633 158.158 167.033 158.158C166.585 158.158 166.193 158.25 165.857 158.434C165.529 158.61 165.273 158.87 165.089 159.214C164.913 159.55 164.825 159.958 164.825 160.438V163.75H163.973V154.846H164.825V159.178L164.657 158.854C164.857 158.398 165.177 158.042 165.617 157.786C166.057 157.522 166.581 157.39 167.189 157.39ZM175.271 166.138C174.975 166.138 174.691 166.09 174.419 165.994C174.155 165.898 173.927 165.754 173.735 165.562L174.131 164.926C174.291 165.078 174.463 165.194 174.647 165.274C174.839 165.362 175.051 165.406 175.283 165.406C175.563 165.406 175.803 165.326 176.003 165.166C176.211 165.014 176.407 164.742 176.591 164.35L176.999 163.426L177.095 163.294L179.687 157.45H180.527L177.371 164.506C177.195 164.914 176.999 165.238 176.783 165.478C176.575 165.718 176.347 165.886 176.099 165.982C175.851 166.086 175.575 166.138 175.271 166.138ZM176.951 163.93L174.047 157.45H174.935L177.503 163.234L176.951 163.93ZM184.119 163.81C183.511 163.81 182.963 163.674 182.475 163.402C181.995 163.122 181.615 162.742 181.335 162.262C181.055 161.774 180.915 161.218 180.915 160.594C180.915 159.962 181.055 159.406 181.335 158.926C181.615 158.446 181.995 158.07 182.475 157.798C182.955 157.526 183.503 157.39 184.119 157.39C184.743 157.39 185.295 157.526 185.775 157.798C186.263 158.07 186.643 158.446 186.915 158.926C187.195 159.406 187.335 159.962 187.335 160.594C187.335 161.218 187.195 161.774 186.915 162.262C186.643 162.742 186.263 163.122 185.775 163.402C185.287 163.674 184.735 163.81 184.119 163.81ZM184.119 163.054C184.575 163.054 184.979 162.954 185.331 162.754C185.683 162.546 185.959 162.258 186.159 161.89C186.367 161.514 186.471 161.082 186.471 160.594C186.471 160.098 186.367 159.666 186.159 159.298C185.959 158.93 185.683 158.646 185.331 158.446C184.979 158.238 184.579 158.134 184.131 158.134C183.683 158.134 183.283 158.238 182.931 158.446C182.579 158.646 182.299 158.93 182.091 159.298C181.883 159.666 181.779 160.098 181.779 160.594C181.779 161.082 181.883 161.514 182.091 161.89C182.299 162.258 182.579 162.546 182.931 162.754C183.283 162.954 183.679 163.054 184.119 163.054ZM191.679 163.81C191.143 163.81 190.675 163.71 190.275 163.51C189.875 163.31 189.563 163.01 189.339 162.61C189.123 162.21 189.015 161.71 189.015 161.11V157.45H189.867V161.014C189.867 161.686 190.031 162.194 190.359 162.538C190.695 162.874 191.163 163.042 191.763 163.042C192.203 163.042 192.583 162.954 192.903 162.778C193.231 162.594 193.479 162.33 193.647 161.986C193.823 161.642 193.911 161.23 193.911 160.75V157.45H194.763V163.75H193.947V162.022L194.079 162.334C193.879 162.798 193.567 163.162 193.143 163.426C192.727 163.682 192.239 163.81 191.679 163.81ZM197.137 163.75V157.45H197.953V159.166L197.869 158.866C198.045 158.386 198.341 158.022 198.757 157.774C199.173 157.518 199.689 157.39 200.305 157.39V158.218C200.273 158.218 200.241 158.218 200.209 158.218C200.177 158.21 200.145 158.206 200.113 158.206C199.449 158.206 198.929 158.41 198.553 158.818C198.177 159.218 197.989 159.79 197.989 160.534V163.75H197.137ZM205.274 163.75V155.35H208.418C209.13 155.35 209.742 155.466 210.254 155.698C210.766 155.922 211.158 156.25 211.43 156.682C211.71 157.106 211.85 157.622 211.85 158.23C211.85 158.822 211.71 159.334 211.43 159.766C211.158 160.19 210.766 160.518 210.254 160.75C209.742 160.982 209.13 161.098 208.418 161.098H205.766L206.162 160.678V163.75H205.274ZM206.162 160.75L205.766 160.318H208.394C209.234 160.318 209.87 160.138 210.302 159.778C210.742 159.41 210.962 158.894 210.962 158.23C210.962 157.558 210.742 157.038 210.302 156.67C209.87 156.302 209.234 156.118 208.394 156.118H205.766L206.162 155.698V160.75ZM217.48 163.75V162.358L217.444 162.13V159.802C217.444 159.266 217.292 158.854 216.988 158.566C216.692 158.278 216.248 158.134 215.656 158.134C215.248 158.134 214.86 158.202 214.492 158.338C214.124 158.474 213.812 158.654 213.556 158.878L213.172 158.242C213.492 157.97 213.876 157.762 214.324 157.618C214.772 157.466 215.244 157.39 215.74 157.39C216.556 157.39 217.184 157.594 217.624 158.002C218.072 158.402 218.296 159.014 218.296 159.838V163.75H217.48ZM215.308 163.81C214.836 163.81 214.424 163.734 214.072 163.582C213.728 163.422 213.464 163.206 213.28 162.934C213.096 162.654 213.004 162.334 213.004 161.974C213.004 161.646 213.08 161.35 213.232 161.086C213.392 160.814 213.648 160.598 214 160.438C214.36 160.27 214.84 160.186 215.44 160.186H217.612V160.822H215.464C214.856 160.822 214.432 160.93 214.192 161.146C213.96 161.362 213.844 161.63 213.844 161.95C213.844 162.31 213.984 162.598 214.264 162.814C214.544 163.03 214.936 163.138 215.44 163.138C215.92 163.138 216.332 163.03 216.676 162.814C217.028 162.59 217.284 162.27 217.444 161.854L217.636 162.442C217.476 162.858 217.196 163.19 216.796 163.438C216.404 163.686 215.908 163.81 215.308 163.81ZM220.541 166.138C220.245 166.138 219.961 166.09 219.689 165.994C219.425 165.898 219.197 165.754 219.005 165.562L219.401 164.926C219.561 165.078 219.733 165.194 219.917 165.274C220.109 165.362 220.321 165.406 220.553 165.406C220.833 165.406 221.073 165.326 221.273 165.166C221.481 165.014 221.677 164.742 221.861 164.35L222.269 163.426L222.365 163.294L224.957 157.45H225.797L222.641 164.506C222.465 164.914 222.269 165.238 222.053 165.478C221.845 165.718 221.617 165.886 221.369 165.982C221.121 166.086 220.845 166.138 220.541 166.138ZM222.221 163.93L219.317 157.45H220.205L222.773 163.234L222.221 163.93ZM227.177 163.75V155.35H230.321C231.033 155.35 231.645 155.466 232.157 155.698C232.669 155.922 233.061 156.25 233.333 156.682C233.613 157.106 233.753 157.622 233.753 158.23C233.753 158.822 233.613 159.334 233.333 159.766C233.061 160.19 232.669 160.518 232.157 160.75C231.645 160.982 231.033 161.098 230.321 161.098H227.669L228.065 160.678V163.75H227.177ZM228.065 160.75L227.669 160.318H230.297C231.137 160.318 231.773 160.138 232.205 159.778C232.645 159.41 232.865 158.894 232.865 158.23C232.865 157.558 232.645 157.038 232.205 156.67C231.773 156.302 231.137 156.118 230.297 156.118H227.669L228.065 155.698V160.75ZM239.382 163.75V162.358L239.346 162.13V159.802C239.346 159.266 239.194 158.854 238.89 158.566C238.594 158.278 238.15 158.134 237.558 158.134C237.15 158.134 236.762 158.202 236.394 158.338C236.026 158.474 235.714 158.654 235.458 158.878L235.074 158.242C235.394 157.97 235.778 157.762 236.226 157.618C236.674 157.466 237.146 157.39 237.642 157.39C238.458 157.39 239.086 157.594 239.526 158.002C239.974 158.402 240.198 159.014 240.198 159.838V163.75H239.382ZM237.21 163.81C236.738 163.81 236.326 163.734 235.974 163.582C235.63 163.422 235.366 163.206 235.182 162.934C234.998 162.654 234.906 162.334 234.906 161.974C234.906 161.646 234.982 161.35 235.134 161.086C235.294 160.814 235.55 160.598 235.902 160.438C236.262 160.27 236.742 160.186 237.342 160.186H239.514V160.822H237.366C236.758 160.822 236.334 160.93 236.094 161.146C235.862 161.362 235.746 161.63 235.746 161.95C235.746 162.31 235.886 162.598 236.166 162.814C236.446 163.03 236.838 163.138 237.342 163.138C237.822 163.138 238.234 163.03 238.578 162.814C238.93 162.59 239.186 162.27 239.346 161.854L239.538 162.442C239.378 162.858 239.098 163.19 238.698 163.438C238.306 163.686 237.81 163.81 237.21 163.81ZM242.512 163.75V154.846H243.364V163.75H242.512ZM252.824 163.75V162.358L252.788 162.13V159.802C252.788 159.266 252.636 158.854 252.332 158.566C252.036 158.278 251.592 158.134 251 158.134C250.592 158.134 250.204 158.202 249.836 158.338C249.468 158.474 249.156 158.654 248.9 158.878L248.516 158.242C248.836 157.97 249.22 157.762 249.668 157.618C250.116 157.466 250.588 157.39 251.084 157.39C251.9 157.39 252.528 157.594 252.968 158.002C253.416 158.402 253.64 159.014 253.64 159.838V163.75H252.824ZM250.652 163.81C250.18 163.81 249.768 163.734 249.416 163.582C249.072 163.422 248.808 163.206 248.624 162.934C248.44 162.654 248.348 162.334 248.348 161.974C248.348 161.646 248.424 161.35 248.576 161.086C248.736 160.814 248.992 160.598 249.344 160.438C249.704 160.27 250.184 160.186 250.784 160.186H252.956V160.822H250.808C250.2 160.822 249.776 160.93 249.536 161.146C249.304 161.362 249.188 161.63 249.188 161.95C249.188 162.31 249.328 162.598 249.608 162.814C249.888 163.03 250.28 163.138 250.784 163.138C251.264 163.138 251.676 163.03 252.02 162.814C252.372 162.59 252.628 162.27 252.788 161.854L252.98 162.442C252.82 162.858 252.54 163.19 252.14 163.438C251.748 163.686 251.252 163.81 250.652 163.81ZM258.57 163.81C257.946 163.81 257.386 163.674 256.89 163.402C256.402 163.122 256.018 162.742 255.738 162.262C255.458 161.774 255.318 161.218 255.318 160.594C255.318 159.962 255.458 159.406 255.738 158.926C256.018 158.446 256.402 158.07 256.89 157.798C257.386 157.526 257.946 157.39 258.57 157.39C259.106 157.39 259.59 157.494 260.022 157.702C260.454 157.91 260.794 158.222 261.042 158.638L260.406 159.07C260.19 158.75 259.922 158.514 259.602 158.362C259.282 158.21 258.934 158.134 258.558 158.134C258.11 158.134 257.706 158.238 257.346 158.446C256.986 158.646 256.702 158.93 256.494 159.298C256.286 159.666 256.182 160.098 256.182 160.594C256.182 161.09 256.286 161.522 256.494 161.89C256.702 162.258 256.986 162.546 257.346 162.754C257.706 162.954 258.11 163.054 258.558 163.054C258.934 163.054 259.282 162.978 259.602 162.826C259.922 162.674 260.19 162.442 260.406 162.13L261.042 162.562C260.794 162.97 260.454 163.282 260.022 163.498C259.59 163.706 259.106 163.81 258.57 163.81ZM265.226 163.81C264.602 163.81 264.042 163.674 263.546 163.402C263.058 163.122 262.674 162.742 262.394 162.262C262.114 161.774 261.974 161.218 261.974 160.594C261.974 159.962 262.114 159.406 262.394 158.926C262.674 158.446 263.058 158.07 263.546 157.798C264.042 157.526 264.602 157.39 265.226 157.39C265.762 157.39 266.246 157.494 266.678 157.702C267.11 157.91 267.45 158.222 267.698 158.638L267.062 159.07C266.846 158.75 266.578 158.514 266.258 158.362C265.938 158.21 265.59 158.134 265.214 158.134C264.766 158.134 264.362 158.238 264.002 158.446C263.642 158.646 263.358 158.93 263.15 159.298C262.942 159.666 262.838 160.098 262.838 160.594C262.838 161.09 262.942 161.522 263.15 161.89C263.358 162.258 263.642 162.546 264.002 162.754C264.362 162.954 264.766 163.054 265.214 163.054C265.59 163.054 265.938 162.978 266.258 162.826C266.578 162.674 266.846 162.442 267.062 162.13L267.698 162.562C267.45 162.97 267.11 163.282 266.678 163.498C266.246 163.706 265.762 163.81 265.226 163.81ZM271.834 163.81C271.226 163.81 270.678 163.674 270.19 163.402C269.71 163.122 269.33 162.742 269.05 162.262C268.77 161.774 268.63 161.218 268.63 160.594C268.63 159.962 268.77 159.406 269.05 158.926C269.33 158.446 269.71 158.07 270.19 157.798C270.67 157.526 271.218 157.39 271.834 157.39C272.458 157.39 273.01 157.526 273.49 157.798C273.978 158.07 274.358 158.446 274.63 158.926C274.91 159.406 275.05 159.962 275.05 160.594C275.05 161.218 274.91 161.774 274.63 162.262C274.358 162.742 273.978 163.122 273.49 163.402C273.002 163.674 272.45 163.81 271.834 163.81ZM271.834 163.054C272.29 163.054 272.694 162.954 273.046 162.754C273.398 162.546 273.674 162.258 273.874 161.89C274.082 161.514 274.186 161.082 274.186 160.594C274.186 160.098 274.082 159.666 273.874 159.298C273.674 158.93 273.398 158.646 273.046 158.446C272.694 158.238 272.294 158.134 271.846 158.134C271.398 158.134 270.998 158.238 270.646 158.446C270.294 158.646 270.014 158.93 269.806 159.298C269.598 159.666 269.494 160.098 269.494 160.594C269.494 161.082 269.598 161.514 269.806 161.89C270.014 162.258 270.294 162.546 270.646 162.754C270.998 162.954 271.394 163.054 271.834 163.054ZM279.394 163.81C278.858 163.81 278.39 163.71 277.99 163.51C277.59 163.31 277.278 163.01 277.054 162.61C276.838 162.21 276.73 161.71 276.73 161.11V157.45H277.582V161.014C277.582 161.686 277.746 162.194 278.074 162.538C278.41 162.874 278.878 163.042 279.478 163.042C279.918 163.042 280.298 162.954 280.618 162.778C280.946 162.594 281.194 162.33 281.362 161.986C281.538 161.642 281.626 161.23 281.626 160.75V157.45H282.478V163.75H281.662V162.022L281.794 162.334C281.594 162.798 281.282 163.162 280.858 163.426C280.442 163.682 279.954 163.81 279.394 163.81ZM288.068 157.39C288.58 157.39 289.028 157.49 289.412 157.69C289.804 157.882 290.108 158.178 290.324 158.578C290.548 158.978 290.66 159.482 290.66 160.09V163.75H289.808V160.174C289.808 159.51 289.64 159.01 289.304 158.674C288.976 158.33 288.512 158.158 287.912 158.158C287.464 158.158 287.072 158.25 286.736 158.434C286.408 158.61 286.152 158.87 285.968 159.214C285.792 159.55 285.704 159.958 285.704 160.438V163.75H284.852V157.45H285.668V159.178L285.536 158.854C285.736 158.398 286.056 158.042 286.496 157.786C286.936 157.522 287.46 157.39 288.068 157.39ZM294.953 163.81C294.361 163.81 293.905 163.65 293.585 163.33C293.265 163.01 293.105 162.558 293.105 161.974V156.058H293.957V161.926C293.957 162.294 294.049 162.578 294.233 162.778C294.425 162.978 294.697 163.078 295.049 163.078C295.425 163.078 295.737 162.97 295.985 162.754L296.285 163.366C296.117 163.518 295.913 163.63 295.673 163.702C295.441 163.774 295.201 163.81 294.953 163.81ZM291.977 158.158V157.45H295.877V158.158H291.977Z" fill="#05162C"/>
</g>
<g filter="url(#filter1_d_1131_4789)">
<rect x="13" y="81.75" width="231" height="36" rx="4" fill="white" shape-rendering="crispEdges"/>
<g clip-path="url(#clip0_1131_4789)">
<path d="M21.8 93.47C21.3583 93.47 21 93.8281 21 94.27V105.23C21 105.672 21.3584 106.03 21.8 106.03H40.2C40.6417 106.03 41 105.672 41 105.23V94.27C41 93.8282 40.6416 93.47 40.2 93.47H21.8ZM32.945 97.2131C33.4318 97.2131 33.8219 97.3206 34.0706 97.4206L33.9006 98.49L33.7881 98.4331C33.5564 98.3331 33.2587 98.2369 32.8481 98.2437C32.3566 98.2437 32.1294 98.463 32.1294 98.6681C32.1265 98.8993 32.3949 99.0517 32.8337 99.28C33.5581 99.6322 33.8929 100.059 33.8881 100.621C33.8784 101.645 33.0217 102.307 31.7019 102.307C31.1388 102.301 30.5964 102.181 30.3031 102.044L30.4794 100.939L30.6413 101.017C31.0536 101.202 31.3206 101.276 31.8231 101.276C32.184 101.276 32.5713 101.125 32.5744 100.794C32.5767 100.578 32.4125 100.424 31.9237 100.182C31.4475 99.9464 30.8161 99.5509 30.8231 98.8419C30.8306 97.8826 31.7044 97.2131 32.945 97.2131ZM22.7687 97.37H24.7956C25.0686 97.3803 25.2889 97.4682 25.365 97.7644L25.8019 100.019C25.8019 100.02 25.8018 100.02 25.8019 100.021L25.9331 100.696L27.1637 97.37H28.495L26.5162 102.239L25.1862 102.24L24.1275 98.3112C24.7575 98.645 25.2938 99.0311 25.6044 99.5625C25.5243 99.3943 25.4188 99.2045 25.2838 99.0175C25.1265 98.7996 24.7869 98.5184 24.645 98.3987C24.1504 97.9818 23.4787 97.645 22.7531 97.4669L22.7687 97.37ZM29.0244 97.3756H30.3263L29.5119 102.237H28.21L29.0244 97.3756ZM36.3775 97.3756H37.3638L38.3963 102.237H37.2125C37.2125 102.237 37.0951 101.678 37.0569 101.508C36.8708 101.508 35.5695 101.506 35.4231 101.506C35.3736 101.638 35.1544 102.237 35.1544 102.237H33.815L35.7094 97.7794C35.8435 97.4626 36.0721 97.3756 36.3775 97.3756ZM36.4744 98.6831C36.4103 98.8639 36.2988 99.1559 36.3062 99.1431C36.3062 99.1431 35.9055 100.212 35.8006 100.489L36.8537 100.489C36.7559 100.025 36.658 99.5616 36.56 99.0981L36.4744 98.6831V98.6831Z" fill="#145DB8"/>
</g>
<path d="M48.684 104.322C48.06 104.322 47.46 104.222 46.884 104.022C46.316 103.814 45.876 103.55 45.564 103.23L45.912 102.546C46.208 102.834 46.604 103.078 47.1 103.278C47.604 103.47 48.132 103.566 48.684 103.566C49.212 103.566 49.64 103.502 49.968 103.374C50.304 103.238 50.548 103.058 50.7 102.834C50.86 102.61 50.94 102.362 50.94 102.09C50.94 101.762 50.844 101.498 50.652 101.298C50.468 101.098 50.224 100.942 49.92 100.83C49.616 100.71 49.28 100.606 48.912 100.518C48.544 100.43 48.176 100.338 47.808 100.242C47.44 100.138 47.1 100.002 46.788 99.834C46.484 99.666 46.236 99.446 46.044 99.174C45.86 98.894 45.768 98.53 45.768 98.082C45.768 97.666 45.876 97.286 46.092 96.942C46.316 96.59 46.656 96.31 47.112 96.102C47.568 95.886 48.152 95.778 48.864 95.778C49.336 95.778 49.804 95.846 50.268 95.982C50.732 96.11 51.132 96.29 51.468 96.522L51.168 97.23C50.808 96.99 50.424 96.814 50.016 96.702C49.616 96.59 49.228 96.534 48.852 96.534C48.348 96.534 47.932 96.602 47.604 96.738C47.276 96.874 47.032 97.058 46.872 97.29C46.72 97.514 46.644 97.77 46.644 98.058C46.644 98.386 46.736 98.65 46.92 98.85C47.112 99.05 47.36 99.206 47.664 99.318C47.976 99.43 48.316 99.53 48.684 99.618C49.052 99.706 49.416 99.802 49.776 99.906C50.144 100.01 50.48 100.146 50.784 100.314C51.096 100.474 51.344 100.69 51.528 100.962C51.72 101.234 51.816 101.59 51.816 102.03C51.816 102.438 51.704 102.818 51.48 103.17C51.256 103.514 50.912 103.794 50.448 104.01C49.992 104.218 49.404 104.322 48.684 104.322ZM56.2468 104.31C55.5908 104.31 55.0148 104.174 54.5188 103.902C54.0228 103.622 53.6348 103.242 53.3548 102.762C53.0748 102.274 52.9348 101.718 52.9348 101.094C52.9348 100.47 53.0668 99.918 53.3308 99.438C53.6028 98.958 53.9708 98.582 54.4348 98.31C54.9068 98.03 55.4348 97.89 56.0188 97.89C56.6108 97.89 57.1348 98.026 57.5908 98.298C58.0548 98.562 58.4188 98.938 58.6828 99.426C58.9468 99.906 59.0788 100.462 59.0788 101.094C59.0788 101.134 59.0748 101.178 59.0668 101.226C59.0668 101.266 59.0668 101.31 59.0668 101.358H53.5828V100.722H58.6108L58.2748 100.974C58.2748 100.518 58.1748 100.114 57.9748 99.762C57.7828 99.402 57.5188 99.122 57.1828 98.922C56.8468 98.722 56.4588 98.622 56.0188 98.622C55.5868 98.622 55.1988 98.722 54.8548 98.922C54.5108 99.122 54.2428 99.402 54.0508 99.762C53.8588 100.122 53.7628 100.534 53.7628 100.998V101.13C53.7628 101.61 53.8668 102.034 54.0748 102.402C54.2908 102.762 54.5868 103.046 54.9628 103.254C55.3468 103.454 55.7828 103.554 56.2708 103.554C56.6548 103.554 57.0108 103.486 57.3388 103.35C57.6748 103.214 57.9628 103.006 58.2028 102.726L58.6828 103.278C58.4028 103.614 58.0508 103.87 57.6268 104.046C57.2108 104.222 56.7508 104.31 56.2468 104.31ZM63.429 104.31C62.805 104.31 62.245 104.174 61.749 103.902C61.261 103.622 60.877 103.242 60.597 102.762C60.317 102.274 60.177 101.718 60.177 101.094C60.177 100.462 60.317 99.906 60.597 99.426C60.877 98.946 61.261 98.57 61.749 98.298C62.245 98.026 62.805 97.89 63.429 97.89C63.965 97.89 64.449 97.994 64.881 98.202C65.313 98.41 65.653 98.722 65.901 99.138L65.265 99.57C65.049 99.25 64.781 99.014 64.461 98.862C64.141 98.71 63.793 98.634 63.417 98.634C62.969 98.634 62.565 98.738 62.205 98.946C61.845 99.146 61.561 99.43 61.353 99.798C61.145 100.166 61.041 100.598 61.041 101.094C61.041 101.59 61.145 102.022 61.353 102.39C61.561 102.758 61.845 103.046 62.205 103.254C62.565 103.454 62.969 103.554 63.417 103.554C63.793 103.554 64.141 103.478 64.461 103.326C64.781 103.174 65.049 102.942 65.265 102.63L65.901 103.062C65.653 103.47 65.313 103.782 64.881 103.998C64.449 104.206 63.965 104.31 63.429 104.31ZM70.1787 104.31C69.6427 104.31 69.1747 104.21 68.7747 104.01C68.3747 103.81 68.0627 103.51 67.8387 103.11C67.6227 102.71 67.5147 102.21 67.5147 101.61V97.95H68.3667V101.514C68.3667 102.186 68.5307 102.694 68.8587 103.038C69.1947 103.374 69.6627 103.542 70.2627 103.542C70.7027 103.542 71.0827 103.454 71.4027 103.278C71.7307 103.094 71.9787 102.83 72.1467 102.486C72.3227 102.142 72.4107 101.73 72.4107 101.25V97.95H73.2627V104.25H72.4467V102.522L72.5787 102.834C72.3787 103.298 72.0667 103.662 71.6427 103.926C71.2267 104.182 70.7387 104.31 70.1787 104.31ZM75.6372 104.25V97.95H76.4532V99.666L76.3692 99.366C76.5452 98.886 76.8412 98.522 77.2572 98.274C77.6732 98.018 78.1892 97.89 78.8052 97.89V98.718C78.7732 98.718 78.7412 98.718 78.7092 98.718C78.6772 98.71 78.6452 98.706 78.6132 98.706C77.9492 98.706 77.4292 98.91 77.0532 99.318C76.6772 99.718 76.4892 100.29 76.4892 101.034V104.25H75.6372ZM82.9773 104.31C82.3213 104.31 81.7453 104.174 81.2493 103.902C80.7533 103.622 80.3653 103.242 80.0853 102.762C79.8053 102.274 79.6653 101.718 79.6653 101.094C79.6653 100.47 79.7973 99.918 80.0613 99.438C80.3333 98.958 80.7013 98.582 81.1653 98.31C81.6373 98.03 82.1653 97.89 82.7493 97.89C83.3413 97.89 83.8653 98.026 84.3213 98.298C84.7853 98.562 85.1493 98.938 85.4133 99.426C85.6773 99.906 85.8093 100.462 85.8093 101.094C85.8093 101.134 85.8053 101.178 85.7973 101.226C85.7973 101.266 85.7973 101.31 85.7973 101.358H80.3133V100.722H85.3413L85.0053 100.974C85.0053 100.518 84.9053 100.114 84.7053 99.762C84.5133 99.402 84.2493 99.122 83.9133 98.922C83.5773 98.722 83.1893 98.622 82.7493 98.622C82.3173 98.622 81.9293 98.722 81.5853 98.922C81.2413 99.122 80.9733 99.402 80.7813 99.762C80.5893 100.122 80.4933 100.534 80.4933 100.998V101.13C80.4933 101.61 80.5973 102.034 80.8053 102.402C81.0213 102.762 81.3173 103.046 81.6933 103.254C82.0773 103.454 82.5133 103.554 83.0013 103.554C83.3853 103.554 83.7413 103.486 84.0693 103.35C84.4053 103.214 84.6933 103.006 84.9333 102.726L85.4133 103.278C85.1333 103.614 84.7813 103.87 84.3573 104.046C83.9413 104.222 83.4813 104.31 82.9773 104.31ZM94.6321 104.25V102.858L94.5961 102.63V100.302C94.5961 99.766 94.4441 99.354 94.1401 99.066C93.8441 98.778 93.4001 98.634 92.8081 98.634C92.4001 98.634 92.0121 98.702 91.6441 98.838C91.2761 98.974 90.9641 99.154 90.7081 99.378L90.3241 98.742C90.6441 98.47 91.0281 98.262 91.4761 98.118C91.9241 97.966 92.3961 97.89 92.8921 97.89C93.7081 97.89 94.3361 98.094 94.7761 98.502C95.2241 98.902 95.4481 99.514 95.4481 100.338V104.25H94.6321ZM92.4601 104.31C91.9881 104.31 91.5761 104.234 91.2241 104.082C90.8801 103.922 90.6161 103.706 90.4321 103.434C90.2481 103.154 90.1561 102.834 90.1561 102.474C90.1561 102.146 90.2321 101.85 90.3841 101.586C90.5441 101.314 90.8001 101.098 91.1521 100.938C91.5121 100.77 91.9921 100.686 92.5921 100.686H94.7641V101.322H92.6161C92.0081 101.322 91.5841 101.43 91.3441 101.646C91.1121 101.862 90.9961 102.13 90.9961 102.45C90.9961 102.81 91.1361 103.098 91.4161 103.314C91.6961 103.53 92.0881 103.638 92.5921 103.638C93.0721 103.638 93.4841 103.53 93.8281 103.314C94.1801 103.09 94.4361 102.77 94.5961 102.354L94.7881 102.942C94.6281 103.358 94.3481 103.69 93.9481 103.938C93.5561 104.186 93.0601 104.31 92.4601 104.31ZM100.978 97.89C101.49 97.89 101.938 97.99 102.322 98.19C102.714 98.382 103.018 98.678 103.234 99.078C103.458 99.478 103.57 99.982 103.57 100.59V104.25H102.718V100.674C102.718 100.01 102.55 99.51 102.214 99.174C101.886 98.83 101.422 98.658 100.822 98.658C100.374 98.658 99.9822 98.75 99.6462 98.934C99.3182 99.11 99.0622 99.37 98.8782 99.714C98.7022 100.05 98.6142 100.458 98.6142 100.938V104.25H97.7622V97.95H98.5782V99.678L98.4462 99.354C98.6462 98.898 98.9662 98.542 99.4062 98.286C99.8462 98.022 100.37 97.89 100.978 97.89ZM108.38 104.31C107.78 104.31 107.24 104.174 106.76 103.902C106.288 103.63 105.916 103.254 105.644 102.774C105.372 102.286 105.236 101.726 105.236 101.094C105.236 100.454 105.372 99.894 105.644 99.414C105.916 98.934 106.288 98.562 106.76 98.298C107.24 98.026 107.78 97.89 108.38 97.89C108.932 97.89 109.424 98.014 109.856 98.262C110.296 98.51 110.644 98.874 110.9 99.354C111.164 99.826 111.296 100.406 111.296 101.094C111.296 101.774 111.168 102.354 110.912 102.834C110.656 103.314 110.308 103.682 109.868 103.938C109.436 104.186 108.94 104.31 108.38 104.31ZM108.44 103.554C108.888 103.554 109.288 103.454 109.64 103.254C110 103.046 110.28 102.758 110.48 102.39C110.688 102.014 110.792 101.582 110.792 101.094C110.792 100.598 110.688 100.166 110.48 99.798C110.28 99.43 110 99.146 109.64 98.946C109.288 98.738 108.888 98.634 108.44 98.634C108 98.634 107.604 98.738 107.252 98.946C106.9 99.146 106.62 99.43 106.412 99.798C106.204 100.166 106.1 100.598 106.1 101.094C106.1 101.582 106.204 102.014 106.412 102.39C106.62 102.758 106.9 103.046 107.252 103.254C107.604 103.454 108 103.554 108.44 103.554ZM110.816 104.25V102.354L110.9 101.082L110.78 99.81V95.346H111.632V104.25H110.816ZM117.289 104.25V97.158C117.289 96.598 117.453 96.146 117.781 95.802C118.109 95.458 118.581 95.286 119.197 95.286C119.437 95.286 119.669 95.318 119.893 95.382C120.117 95.446 120.305 95.546 120.457 95.682L120.169 96.318C120.049 96.214 119.909 96.138 119.749 96.09C119.589 96.034 119.417 96.006 119.233 96.006C118.873 96.006 118.597 96.106 118.405 96.306C118.213 96.506 118.117 96.802 118.117 97.194V98.154L118.141 98.55V104.25H117.289ZM116.161 98.658V97.95H120.061V98.658H116.161ZM125.042 104.25V102.858L125.006 102.63V100.302C125.006 99.766 124.854 99.354 124.55 99.066C124.254 98.778 123.81 98.634 123.218 98.634C122.81 98.634 122.422 98.702 122.054 98.838C121.686 98.974 121.374 99.154 121.118 99.378L120.734 98.742C121.054 98.47 121.438 98.262 121.886 98.118C122.334 97.966 122.806 97.89 123.302 97.89C124.118 97.89 124.746 98.094 125.186 98.502C125.634 98.902 125.858 99.514 125.858 100.338V104.25H125.042ZM122.87 104.31C122.398 104.31 121.986 104.234 121.634 104.082C121.29 103.922 121.026 103.706 120.842 103.434C120.658 103.154 120.566 102.834 120.566 102.474C120.566 102.146 120.642 101.85 120.794 101.586C120.954 101.314 121.21 101.098 121.562 100.938C121.922 100.77 122.402 100.686 123.002 100.686H125.174V101.322H123.026C122.418 101.322 121.994 101.43 121.754 101.646C121.522 101.862 121.406 102.13 121.406 102.45C121.406 102.81 121.546 103.098 121.826 103.314C122.106 103.53 122.498 103.638 123.002 103.638C123.482 103.638 123.894 103.53 124.238 103.314C124.59 103.09 124.846 102.77 125.006 102.354L125.198 102.942C125.038 103.358 124.758 103.69 124.358 103.938C123.966 104.186 123.47 104.31 122.87 104.31ZM129.864 104.31C129.344 104.31 128.852 104.238 128.388 104.094C127.924 103.942 127.56 103.754 127.296 103.53L127.68 102.858C127.936 103.05 128.264 103.218 128.664 103.362C129.064 103.498 129.484 103.566 129.924 103.566C130.524 103.566 130.956 103.474 131.22 103.29C131.484 103.098 131.616 102.846 131.616 102.534C131.616 102.302 131.54 102.122 131.388 101.994C131.244 101.858 131.052 101.758 130.812 101.694C130.572 101.622 130.304 101.562 130.008 101.514C129.712 101.466 129.416 101.41 129.12 101.346C128.832 101.282 128.568 101.19 128.328 101.07C128.088 100.942 127.892 100.77 127.74 100.554C127.596 100.338 127.524 100.05 127.524 99.69C127.524 99.346 127.62 99.038 127.812 98.766C128.004 98.494 128.284 98.282 128.652 98.13C129.028 97.97 129.484 97.89 130.02 97.89C130.428 97.89 130.836 97.946 131.244 98.058C131.652 98.162 131.988 98.302 132.252 98.478L131.88 99.162C131.6 98.97 131.3 98.834 130.98 98.754C130.66 98.666 130.34 98.622 130.02 98.622C129.452 98.622 129.032 98.722 128.76 98.922C128.496 99.114 128.364 99.362 128.364 99.666C128.364 99.906 128.436 100.094 128.58 100.23C128.732 100.366 128.928 100.474 129.168 100.554C129.416 100.626 129.684 100.686 129.972 100.734C130.268 100.782 130.56 100.842 130.848 100.914C131.144 100.978 131.412 101.07 131.652 101.19C131.9 101.302 132.096 101.466 132.24 101.682C132.392 101.89 132.468 102.166 132.468 102.51C132.468 102.878 132.364 103.198 132.156 103.47C131.956 103.734 131.66 103.942 131.268 104.094C130.884 104.238 130.416 104.31 129.864 104.31ZM136.024 104.31C135.432 104.31 134.976 104.15 134.656 103.83C134.336 103.51 134.176 103.058 134.176 102.474V96.558H135.028V102.426C135.028 102.794 135.12 103.078 135.304 103.278C135.496 103.478 135.768 103.578 136.12 103.578C136.496 103.578 136.808 103.47 137.056 103.254L137.356 103.866C137.188 104.018 136.984 104.13 136.744 104.202C136.512 104.274 136.272 104.31 136.024 104.31ZM133.048 98.658V97.95H136.948V98.658H133.048ZM144.663 104.31C144.039 104.31 143.479 104.174 142.983 103.902C142.495 103.622 142.111 103.242 141.831 102.762C141.551 102.274 141.411 101.718 141.411 101.094C141.411 100.462 141.551 99.906 141.831 99.426C142.111 98.946 142.495 98.57 142.983 98.298C143.479 98.026 144.039 97.89 144.663 97.89C145.199 97.89 145.683 97.994 146.115 98.202C146.547 98.41 146.887 98.722 147.135 99.138L146.499 99.57C146.283 99.25 146.015 99.014 145.695 98.862C145.375 98.71 145.027 98.634 144.651 98.634C144.203 98.634 143.799 98.738 143.439 98.946C143.079 99.146 142.795 99.43 142.587 99.798C142.379 100.166 142.275 100.598 142.275 101.094C142.275 101.59 142.379 102.022 142.587 102.39C142.795 102.758 143.079 103.046 143.439 103.254C143.799 103.454 144.203 103.554 144.651 103.554C145.027 103.554 145.375 103.478 145.695 103.326C146.015 103.174 146.283 102.942 146.499 102.63L147.135 103.062C146.887 103.47 146.547 103.782 146.115 103.998C145.683 104.206 145.199 104.31 144.663 104.31ZM152.757 104.25V102.858L152.721 102.63V100.302C152.721 99.766 152.569 99.354 152.265 99.066C151.969 98.778 151.525 98.634 150.933 98.634C150.525 98.634 150.137 98.702 149.769 98.838C149.401 98.974 149.089 99.154 148.833 99.378L148.449 98.742C148.769 98.47 149.153 98.262 149.601 98.118C150.049 97.966 150.521 97.89 151.017 97.89C151.833 97.89 152.461 98.094 152.901 98.502C153.349 98.902 153.573 99.514 153.573 100.338V104.25H152.757ZM150.585 104.31C150.113 104.31 149.701 104.234 149.349 104.082C149.005 103.922 148.741 103.706 148.557 103.434C148.373 103.154 148.281 102.834 148.281 102.474C148.281 102.146 148.357 101.85 148.509 101.586C148.669 101.314 148.925 101.098 149.277 100.938C149.637 100.77 150.117 100.686 150.717 100.686H152.889V101.322H150.741C150.133 101.322 149.709 101.43 149.469 101.646C149.237 101.862 149.121 102.13 149.121 102.45C149.121 102.81 149.261 103.098 149.541 103.314C149.821 103.53 150.213 103.638 150.717 103.638C151.197 103.638 151.609 103.53 151.953 103.314C152.305 103.09 152.561 102.77 152.721 102.354L152.913 102.942C152.753 103.358 152.473 103.69 152.073 103.938C151.681 104.186 151.185 104.31 150.585 104.31ZM155.887 104.25V97.95H156.703V99.666L156.619 99.366C156.795 98.886 157.091 98.522 157.507 98.274C157.923 98.018 158.439 97.89 159.055 97.89V98.718C159.023 98.718 158.991 98.718 158.959 98.718C158.927 98.71 158.895 98.706 158.863 98.706C158.199 98.706 157.679 98.91 157.303 99.318C156.927 99.718 156.739 100.29 156.739 101.034V104.25H155.887ZM163.059 104.31C162.459 104.31 161.919 104.174 161.439 103.902C160.967 103.63 160.595 103.254 160.323 102.774C160.051 102.286 159.915 101.726 159.915 101.094C159.915 100.454 160.051 99.894 160.323 99.414C160.595 98.934 160.967 98.562 161.439 98.298C161.919 98.026 162.459 97.89 163.059 97.89C163.611 97.89 164.103 98.014 164.535 98.262C164.975 98.51 165.323 98.874 165.579 99.354C165.843 99.826 165.975 100.406 165.975 101.094C165.975 101.774 165.847 102.354 165.591 102.834C165.335 103.314 164.987 103.682 164.547 103.938C164.115 104.186 163.619 104.31 163.059 104.31ZM163.119 103.554C163.567 103.554 163.967 103.454 164.319 103.254C164.679 103.046 164.959 102.758 165.159 102.39C165.367 102.014 165.471 101.582 165.471 101.094C165.471 100.598 165.367 100.166 165.159 99.798C164.959 99.43 164.679 99.146 164.319 98.946C163.967 98.738 163.567 98.634 163.119 98.634C162.679 98.634 162.283 98.738 161.931 98.946C161.579 99.146 161.299 99.43 161.091 99.798C160.883 100.166 160.779 100.598 160.779 101.094C160.779 101.582 160.883 102.014 161.091 102.39C161.299 102.758 161.579 103.046 161.931 103.254C162.283 103.454 162.679 103.554 163.119 103.554ZM165.495 104.25V102.354L165.579 101.082L165.459 99.81V95.346H166.311V104.25H165.495ZM175.077 104.31C174.533 104.31 174.041 104.186 173.601 103.938C173.161 103.682 172.809 103.318 172.545 102.846C172.289 102.366 172.161 101.782 172.161 101.094C172.161 100.406 172.289 99.826 172.545 99.354C172.801 98.874 173.149 98.51 173.589 98.262C174.029 98.014 174.525 97.89 175.077 97.89C175.677 97.89 176.213 98.026 176.685 98.298C177.165 98.562 177.541 98.938 177.813 99.426C178.085 99.906 178.221 100.462 178.221 101.094C178.221 101.734 178.085 102.294 177.813 102.774C177.541 103.254 177.165 103.63 176.685 103.902C176.213 104.174 175.677 104.31 175.077 104.31ZM171.825 106.578V97.95H172.641V99.846L172.557 101.106L172.677 102.378V106.578H171.825ZM175.017 103.554C175.465 103.554 175.865 103.454 176.217 103.254C176.569 103.046 176.849 102.758 177.057 102.39C177.265 102.014 177.369 101.582 177.369 101.094C177.369 100.606 177.265 100.178 177.057 99.81C176.849 99.442 176.569 99.154 176.217 98.946C175.865 98.738 175.465 98.634 175.017 98.634C174.569 98.634 174.165 98.738 173.805 98.946C173.453 99.154 173.173 99.442 172.965 99.81C172.765 100.178 172.665 100.606 172.665 101.094C172.665 101.582 172.765 102.014 172.965 102.39C173.173 102.758 173.453 103.046 173.805 103.254C174.165 103.454 174.569 103.554 175.017 103.554ZM183.87 104.25V102.858L183.834 102.63V100.302C183.834 99.766 183.682 99.354 183.378 99.066C183.082 98.778 182.638 98.634 182.046 98.634C181.638 98.634 181.25 98.702 180.882 98.838C180.514 98.974 180.202 99.154 179.946 99.378L179.562 98.742C179.882 98.47 180.266 98.262 180.714 98.118C181.162 97.966 181.634 97.89 182.13 97.89C182.946 97.89 183.574 98.094 184.014 98.502C184.462 98.902 184.686 99.514 184.686 100.338V104.25H183.87ZM181.698 104.31C181.226 104.31 180.814 104.234 180.462 104.082C180.118 103.922 179.854 103.706 179.67 103.434C179.486 103.154 179.394 102.834 179.394 102.474C179.394 102.146 179.47 101.85 179.622 101.586C179.782 101.314 180.038 101.098 180.39 100.938C180.75 100.77 181.23 100.686 181.83 100.686H184.002V101.322H181.854C181.246 101.322 180.822 101.43 180.582 101.646C180.35 101.862 180.234 102.13 180.234 102.45C180.234 102.81 180.374 103.098 180.654 103.314C180.934 103.53 181.326 103.638 181.83 103.638C182.31 103.638 182.722 103.53 183.066 103.314C183.418 103.09 183.674 102.77 183.834 102.354L184.026 102.942C183.866 103.358 183.586 103.69 183.186 103.938C182.794 104.186 182.298 104.31 181.698 104.31ZM186.931 106.638C186.635 106.638 186.351 106.59 186.079 106.494C185.815 106.398 185.587 106.254 185.395 106.062L185.791 105.426C185.951 105.578 186.123 105.694 186.307 105.774C186.499 105.862 186.711 105.906 186.943 105.906C187.223 105.906 187.463 105.826 187.663 105.666C187.871 105.514 188.067 105.242 188.251 104.85L188.659 103.926L188.755 103.794L191.347 97.95H192.187L189.031 105.006C188.855 105.414 188.659 105.738 188.443 105.978C188.235 106.218 188.007 106.386 187.759 106.482C187.511 106.586 187.235 106.638 186.931 106.638ZM188.611 104.43L185.707 97.95H186.595L189.163 103.734L188.611 104.43ZM201.259 97.89C201.771 97.89 202.215 97.99 202.591 98.19C202.975 98.382 203.271 98.678 203.479 99.078C203.695 99.478 203.803 99.982 203.803 100.59V104.25H202.951V100.674C202.951 100.01 202.791 99.51 202.471 99.174C202.159 98.83 201.715 98.658 201.139 98.658C200.707 98.658 200.331 98.75 200.011 98.934C199.699 99.11 199.455 99.37 199.279 99.714C199.111 100.05 199.027 100.458 199.027 100.938V104.25H198.175V100.674C198.175 100.01 198.015 99.51 197.695 99.174C197.375 98.83 196.927 98.658 196.351 98.658C195.927 98.658 195.555 98.75 195.235 98.934C194.915 99.11 194.667 99.37 194.491 99.714C194.323 100.05 194.239 100.458 194.239 100.938V104.25H193.387V97.95H194.203V99.654L194.071 99.354C194.263 98.898 194.571 98.542 194.995 98.286C195.427 98.022 195.935 97.89 196.519 97.89C197.135 97.89 197.659 98.046 198.091 98.358C198.523 98.662 198.803 99.122 198.931 99.738L198.595 99.606C198.779 99.094 199.103 98.682 199.567 98.37C200.039 98.05 200.603 97.89 201.259 97.89ZM208.79 104.31C208.134 104.31 207.558 104.174 207.062 103.902C206.566 103.622 206.178 103.242 205.898 102.762C205.618 102.274 205.478 101.718 205.478 101.094C205.478 100.47 205.61 99.918 205.874 99.438C206.146 98.958 206.514 98.582 206.978 98.31C207.45 98.03 207.978 97.89 208.562 97.89C209.154 97.89 209.678 98.026 210.134 98.298C210.598 98.562 210.962 98.938 211.226 99.426C211.49 99.906 211.622 100.462 211.622 101.094C211.622 101.134 211.618 101.178 211.61 101.226C211.61 101.266 211.61 101.31 211.61 101.358H206.126V100.722H211.154L210.818 100.974C210.818 100.518 210.718 100.114 210.518 99.762C210.326 99.402 210.062 99.122 209.726 98.922C209.39 98.722 209.002 98.622 208.562 98.622C208.13 98.622 207.742 98.722 207.398 98.922C207.054 99.122 206.786 99.402 206.594 99.762C206.402 100.122 206.306 100.534 206.306 100.998V101.13C206.306 101.61 206.41 102.034 206.618 102.402C206.834 102.762 207.13 103.046 207.506 103.254C207.89 103.454 208.326 103.554 208.814 103.554C209.198 103.554 209.554 103.486 209.882 103.35C210.218 103.214 210.506 103.006 210.746 102.726L211.226 103.278C210.946 103.614 210.594 103.87 210.17 104.046C209.754 104.222 209.294 104.31 208.79 104.31ZM216.572 97.89C217.084 97.89 217.532 97.99 217.916 98.19C218.308 98.382 218.612 98.678 218.828 99.078C219.052 99.478 219.164 99.982 219.164 100.59V104.25H218.312V100.674C218.312 100.01 218.144 99.51 217.808 99.174C217.48 98.83 217.016 98.658 216.416 98.658C215.968 98.658 215.576 98.75 215.24 98.934C214.912 99.11 214.656 99.37 214.472 99.714C214.296 100.05 214.208 100.458 214.208 100.938V104.25H213.356V97.95H214.172V99.678L214.04 99.354C214.24 98.898 214.56 98.542 215 98.286C215.44 98.022 215.964 97.89 216.572 97.89ZM223.457 104.31C222.865 104.31 222.409 104.15 222.089 103.83C221.769 103.51 221.609 103.058 221.609 102.474V96.558H222.461V102.426C222.461 102.794 222.553 103.078 222.737 103.278C222.929 103.478 223.201 103.578 223.553 103.578C223.929 103.578 224.241 103.47 224.489 103.254L224.789 103.866C224.621 104.018 224.417 104.13 224.177 104.202C223.945 104.274 223.705 104.31 223.457 104.31ZM220.481 98.658V97.95H224.381V98.658H220.481ZM228.032 104.31C227.512 104.31 227.02 104.238 226.556 104.094C226.092 103.942 225.728 103.754 225.464 103.53L225.848 102.858C226.104 103.05 226.432 103.218 226.832 103.362C227.232 103.498 227.652 103.566 228.092 103.566C228.692 103.566 229.124 103.474 229.388 103.29C229.652 103.098 229.784 102.846 229.784 102.534C229.784 102.302 229.708 102.122 229.556 101.994C229.412 101.858 229.22 101.758 228.98 101.694C228.74 101.622 228.472 101.562 228.176 101.514C227.88 101.466 227.584 101.41 227.288 101.346C227 101.282 226.736 101.19 226.496 101.07C226.256 100.942 226.06 100.77 225.908 100.554C225.764 100.338 225.692 100.05 225.692 99.69C225.692 99.346 225.788 99.038 225.98 98.766C226.172 98.494 226.452 98.282 226.82 98.13C227.196 97.97 227.652 97.89 228.188 97.89C228.596 97.89 229.004 97.946 229.412 98.058C229.82 98.162 230.156 98.302 230.42 98.478L230.048 99.162C229.768 98.97 229.468 98.834 229.148 98.754C228.828 98.666 228.508 98.622 228.188 98.622C227.62 98.622 227.2 98.722 226.928 98.922C226.664 99.114 226.532 99.362 226.532 99.666C226.532 99.906 226.604 100.094 226.748 100.23C226.9 100.366 227.096 100.474 227.336 100.554C227.584 100.626 227.852 100.686 228.14 100.734C228.436 100.782 228.728 100.842 229.016 100.914C229.312 100.978 229.58 101.07 229.82 101.19C230.068 101.302 230.264 101.466 230.408 101.682C230.56 101.89 230.636 102.166 230.636 102.51C230.636 102.878 230.532 103.198 230.324 103.47C230.124 103.734 229.828 103.942 229.436 104.094C229.052 104.238 228.584 104.31 228.032 104.31Z" fill="#05162C"/>
</g>
<g filter="url(#filter2_d_1131_4789)">
<rect x="35" y="21.75" width="279" height="36" rx="4" fill="white" shape-rendering="crispEdges"/>
<path d="M46.6544 36.7776C46.42 37.0468 46.045 37.2592 45.6699 37.2288C45.623 36.8648 45.8066 36.478 46.0215 36.2391C46.2559 35.9624 46.6661 35.7652 46.9982 35.75C47.0373 36.1292 46.8849 36.5008 46.6544 36.7776ZM46.9943 37.3009C46.4513 37.2706 45.9864 37.6004 45.7285 37.6004C45.4668 37.6004 45.0722 37.3161 44.6425 37.3236C44.0839 37.3312 43.5642 37.6383 43.2791 38.1275C42.693 39.1058 43.1267 40.5544 43.6932 41.3506C43.9705 41.745 44.3026 42.1773 44.7401 42.1621C45.1543 42.1469 45.3184 41.9005 45.8184 41.9005C46.3224 41.9005 46.4669 42.1621 46.9045 42.1545C47.3576 42.1469 47.6428 41.7602 47.9202 41.3658C48.2366 40.9184 48.3656 40.4823 48.3734 40.4595C48.3656 40.452 47.4983 40.1297 47.4905 39.1589C47.4827 38.3475 48.1742 37.9607 48.2054 37.9379C47.8147 37.3767 47.2053 37.3161 46.9943 37.3009ZM50.1314 36.2012V42.1128H51.0768V40.0918H52.3856C53.581 40.0918 54.421 39.2955 54.421 38.1427C54.421 36.99 53.5966 36.2013 52.4168 36.2013L50.1314 36.2012ZM51.0768 36.9748H52.1668C52.9872 36.9748 53.456 37.3995 53.456 38.1465C53.456 38.8935 52.9872 39.322 52.1629 39.322H51.0768V36.9748ZM56.1477 42.1583C56.7415 42.1583 57.2923 41.8664 57.5424 41.4037H57.5619V42.1128H58.437V39.1703C58.437 38.3171 57.7338 37.7673 56.6516 37.7673C55.6476 37.7673 54.9053 38.3247 54.878 39.0907H55.7297C55.8 38.7266 56.1476 38.4877 56.6243 38.4877C57.2025 38.4877 57.5267 38.7494 57.5267 39.231V39.5571L56.3469 39.6253C55.2491 39.6898 54.6553 40.1258 54.6553 40.8843C54.6553 41.6502 55.2687 42.1583 56.1477 42.1583ZM56.4016 41.4568C55.8977 41.4568 55.5773 41.2217 55.5773 40.8615C55.5773 40.4899 55.8859 40.2738 56.4759 40.2396L57.5267 40.1752V40.5088C57.5267 41.0625 57.0423 41.4568 56.4016 41.4568M59.6051 43.7206C60.5271 43.7206 60.9608 43.3793 61.3397 42.3441L63 37.8242H62.039L60.9256 41.3165H60.906L59.7926 37.8242H58.8042L60.406 42.128L60.32 42.3896C60.1755 42.8333 59.9411 43.0039 59.5231 43.0039C59.4489 43.0039 59.3043 42.9963 59.2457 42.9887V43.6978C59.3004 43.713 59.5348 43.7206 59.6051 43.7206" fill="black"/>
<path d="M72.04 44.322C71.408 44.322 70.82 44.218 70.276 44.01C69.74 43.794 69.272 43.494 68.872 43.11C68.48 42.718 68.172 42.266 67.948 41.754C67.732 41.234 67.624 40.666 67.624 40.05C67.624 39.434 67.732 38.87 67.948 38.358C68.172 37.838 68.48 37.386 68.872 37.002C69.272 36.61 69.74 36.31 70.276 36.102C70.812 35.886 71.4 35.778 72.04 35.778C72.672 35.778 73.256 35.886 73.792 36.102C74.328 36.31 74.792 36.606 75.184 36.99C75.584 37.374 75.892 37.826 76.108 38.346C76.332 38.866 76.444 39.434 76.444 40.05C76.444 40.666 76.332 41.234 76.108 41.754C75.892 42.274 75.584 42.726 75.184 43.11C74.792 43.494 74.328 43.794 73.792 44.01C73.256 44.218 72.672 44.322 72.04 44.322ZM74.788 45.918C74.532 45.918 74.284 45.886 74.044 45.822C73.804 45.758 73.56 45.654 73.312 45.51C73.072 45.374 72.824 45.194 72.568 44.97C72.312 44.746 72.032 44.474 71.728 44.154L72.7 43.914C72.948 44.21 73.188 44.454 73.42 44.646C73.66 44.838 73.892 44.978 74.116 45.066C74.348 45.162 74.576 45.21 74.8 45.21C75.424 45.21 75.956 44.954 76.396 44.442L76.828 44.958C76.3 45.598 75.62 45.918 74.788 45.918ZM72.04 43.53C72.544 43.53 73.008 43.446 73.432 43.278C73.864 43.102 74.236 42.854 74.548 42.534C74.868 42.214 75.116 41.846 75.292 41.43C75.468 41.006 75.556 40.546 75.556 40.05C75.556 39.546 75.468 39.086 75.292 38.67C75.116 38.246 74.868 37.878 74.548 37.566C74.236 37.246 73.864 37.002 73.432 36.834C73.008 36.658 72.544 36.57 72.04 36.57C71.536 36.57 71.068 36.658 70.636 36.834C70.204 37.002 69.828 37.246 69.508 37.566C69.196 37.878 68.948 38.246 68.764 38.67C68.588 39.086 68.5 39.546 68.5 40.05C68.5 40.546 68.588 41.006 68.764 41.43C68.948 41.846 69.196 42.214 69.508 42.534C69.828 42.854 70.204 43.102 70.636 43.278C71.068 43.446 71.536 43.53 72.04 43.53ZM80.8584 44.31C80.3224 44.31 79.8544 44.21 79.4544 44.01C79.0544 43.81 78.7424 43.51 78.5184 43.11C78.3024 42.71 78.1944 42.21 78.1944 41.61V37.95H79.0464V41.514C79.0464 42.186 79.2104 42.694 79.5384 43.038C79.8744 43.374 80.3424 43.542 80.9424 43.542C81.3824 43.542 81.7624 43.454 82.0824 43.278C82.4104 43.094 82.6584 42.83 82.8264 42.486C83.0024 42.142 83.0904 41.73 83.0904 41.25V37.95H83.9424V44.25H83.1264V42.522L83.2584 42.834C83.0584 43.298 82.7464 43.662 82.3224 43.926C81.9064 44.182 81.4184 44.31 80.8584 44.31ZM86.3169 44.25V37.95H87.1689V44.25H86.3169ZM86.7489 36.558C86.5729 36.558 86.4249 36.498 86.3049 36.378C86.1849 36.258 86.1249 36.114 86.1249 35.946C86.1249 35.778 86.1849 35.638 86.3049 35.526C86.4249 35.406 86.5729 35.346 86.7489 35.346C86.9249 35.346 87.0729 35.402 87.1929 35.514C87.3129 35.626 87.3729 35.766 87.3729 35.934C87.3729 36.11 87.3129 36.258 87.1929 36.378C87.0809 36.498 86.9329 36.558 86.7489 36.558ZM92.1556 44.31C91.5316 44.31 90.9716 44.174 90.4756 43.902C89.9876 43.622 89.6036 43.242 89.3236 42.762C89.0436 42.274 88.9036 41.718 88.9036 41.094C88.9036 40.462 89.0436 39.906 89.3236 39.426C89.6036 38.946 89.9876 38.57 90.4756 38.298C90.9716 38.026 91.5316 37.89 92.1556 37.89C92.6916 37.89 93.1756 37.994 93.6076 38.202C94.0396 38.41 94.3796 38.722 94.6276 39.138L93.9916 39.57C93.7756 39.25 93.5076 39.014 93.1876 38.862C92.8676 38.71 92.5196 38.634 92.1436 38.634C91.6956 38.634 91.2916 38.738 90.9316 38.946C90.5716 39.146 90.2876 39.43 90.0796 39.798C89.8716 40.166 89.7676 40.598 89.7676 41.094C89.7676 41.59 89.8716 42.022 90.0796 42.39C90.2876 42.758 90.5716 43.046 90.9316 43.254C91.2916 43.454 91.6956 43.554 92.1436 43.554C92.5196 43.554 92.8676 43.478 93.1876 43.326C93.5076 43.174 93.7756 42.942 93.9916 42.63L94.6276 43.062C94.3796 43.47 94.0396 43.782 93.6076 43.998C93.1756 44.206 92.6916 44.31 92.1556 44.31ZM96.8795 42.618L96.9035 41.526L100.828 37.95H101.872L99.0995 40.602L98.6195 41.01L96.8795 42.618ZM96.2075 44.25V35.346H97.0595V44.25H96.2075ZM101.092 44.25L98.4635 40.974L99.0155 40.314L102.136 44.25H101.092ZM109.171 44.31C108.547 44.31 107.987 44.174 107.491 43.902C107.003 43.622 106.619 43.242 106.339 42.762C106.059 42.274 105.919 41.718 105.919 41.094C105.919 40.462 106.059 39.906 106.339 39.426C106.619 38.946 107.003 38.57 107.491 38.298C107.987 38.026 108.547 37.89 109.171 37.89C109.707 37.89 110.191 37.994 110.623 38.202C111.055 38.41 111.395 38.722 111.643 39.138L111.007 39.57C110.791 39.25 110.523 39.014 110.203 38.862C109.883 38.71 109.535 38.634 109.159 38.634C108.711 38.634 108.307 38.738 107.947 38.946C107.587 39.146 107.303 39.43 107.095 39.798C106.887 40.166 106.783 40.598 106.783 41.094C106.783 41.59 106.887 42.022 107.095 42.39C107.303 42.758 107.587 43.046 107.947 43.254C108.307 43.454 108.711 43.554 109.159 43.554C109.535 43.554 109.883 43.478 110.203 43.326C110.523 43.174 110.791 42.942 111.007 42.63L111.643 43.062C111.395 43.47 111.055 43.782 110.623 43.998C110.191 44.206 109.707 44.31 109.171 44.31ZM116.439 37.89C116.951 37.89 117.399 37.99 117.783 38.19C118.175 38.382 118.479 38.678 118.695 39.078C118.919 39.478 119.031 39.982 119.031 40.59V44.25H118.179V40.674C118.179 40.01 118.011 39.51 117.675 39.174C117.347 38.83 116.883 38.658 116.283 38.658C115.835 38.658 115.443 38.75 115.107 38.934C114.779 39.11 114.523 39.37 114.339 39.714C114.163 40.05 114.075 40.458 114.075 40.938V44.25H113.223V35.346H114.075V39.678L113.907 39.354C114.107 38.898 114.427 38.542 114.867 38.286C115.307 38.022 115.831 37.89 116.439 37.89ZM124.009 44.31C123.353 44.31 122.777 44.174 122.281 43.902C121.785 43.622 121.397 43.242 121.117 42.762C120.837 42.274 120.697 41.718 120.697 41.094C120.697 40.47 120.829 39.918 121.093 39.438C121.365 38.958 121.733 38.582 122.197 38.31C122.669 38.03 123.197 37.89 123.781 37.89C124.373 37.89 124.897 38.026 125.353 38.298C125.817 38.562 126.181 38.938 126.445 39.426C126.709 39.906 126.841 40.462 126.841 41.094C126.841 41.134 126.837 41.178 126.829 41.226C126.829 41.266 126.829 41.31 126.829 41.358H121.345V40.722H126.373L126.037 40.974C126.037 40.518 125.937 40.114 125.737 39.762C125.545 39.402 125.281 39.122 124.945 38.922C124.609 38.722 124.221 38.622 123.781 38.622C123.349 38.622 122.961 38.722 122.617 38.922C122.273 39.122 122.005 39.402 121.813 39.762C121.621 40.122 121.525 40.534 121.525 40.998V41.13C121.525 41.61 121.629 42.034 121.837 42.402C122.053 42.762 122.349 43.046 122.725 43.254C123.109 43.454 123.545 43.554 124.033 43.554C124.417 43.554 124.773 43.486 125.101 43.35C125.437 43.214 125.725 43.006 125.965 42.726L126.445 43.278C126.165 43.614 125.813 43.87 125.389 44.046C124.973 44.222 124.513 44.31 124.009 44.31ZM131.191 44.31C130.567 44.31 130.007 44.174 129.511 43.902C129.023 43.622 128.639 43.242 128.359 42.762C128.079 42.274 127.939 41.718 127.939 41.094C127.939 40.462 128.079 39.906 128.359 39.426C128.639 38.946 129.023 38.57 129.511 38.298C130.007 38.026 130.567 37.89 131.191 37.89C131.727 37.89 132.211 37.994 132.643 38.202C133.075 38.41 133.415 38.722 133.663 39.138L133.027 39.57C132.811 39.25 132.543 39.014 132.223 38.862C131.903 38.71 131.555 38.634 131.179 38.634C130.731 38.634 130.327 38.738 129.967 38.946C129.607 39.146 129.323 39.43 129.115 39.798C128.907 40.166 128.803 40.598 128.803 41.094C128.803 41.59 128.907 42.022 129.115 42.39C129.323 42.758 129.607 43.046 129.967 43.254C130.327 43.454 130.731 43.554 131.179 43.554C131.555 43.554 131.903 43.478 132.223 43.326C132.543 43.174 132.811 42.942 133.027 42.63L133.663 43.062C133.415 43.47 133.075 43.782 132.643 43.998C132.211 44.206 131.727 44.31 131.191 44.31ZM135.915 42.618L135.939 41.526L139.863 37.95H140.907L138.135 40.602L137.655 41.01L135.915 42.618ZM135.243 44.25V35.346H136.095V44.25H135.243ZM140.127 44.25L137.499 40.974L138.051 40.314L141.171 44.25H140.127ZM144.772 44.31C144.164 44.31 143.616 44.174 143.128 43.902C142.648 43.622 142.268 43.242 141.988 42.762C141.708 42.274 141.568 41.718 141.568 41.094C141.568 40.462 141.708 39.906 141.988 39.426C142.268 38.946 142.648 38.57 143.128 38.298C143.608 38.026 144.156 37.89 144.772 37.89C145.396 37.89 145.948 38.026 146.428 38.298C146.916 38.57 147.296 38.946 147.568 39.426C147.848 39.906 147.988 40.462 147.988 41.094C147.988 41.718 147.848 42.274 147.568 42.762C147.296 43.242 146.916 43.622 146.428 43.902C145.94 44.174 145.388 44.31 144.772 44.31ZM144.772 43.554C145.228 43.554 145.632 43.454 145.984 43.254C146.336 43.046 146.612 42.758 146.812 42.39C147.02 42.014 147.124 41.582 147.124 41.094C147.124 40.598 147.02 40.166 146.812 39.798C146.612 39.43 146.336 39.146 145.984 38.946C145.632 38.738 145.232 38.634 144.784 38.634C144.336 38.634 143.936 38.738 143.584 38.946C143.232 39.146 142.952 39.43 142.744 39.798C142.536 40.166 142.432 40.598 142.432 41.094C142.432 41.582 142.536 42.014 142.744 42.39C142.952 42.758 143.232 43.046 143.584 43.254C143.936 43.454 144.332 43.554 144.772 43.554ZM152.331 44.31C151.795 44.31 151.327 44.21 150.927 44.01C150.527 43.81 150.215 43.51 149.991 43.11C149.775 42.71 149.667 42.21 149.667 41.61V37.95H150.519V41.514C150.519 42.186 150.683 42.694 151.011 43.038C151.347 43.374 151.815 43.542 152.415 43.542C152.855 43.542 153.235 43.454 153.555 43.278C153.883 43.094 154.131 42.83 154.299 42.486C154.475 42.142 154.563 41.73 154.563 41.25V37.95H155.415V44.25H154.599V42.522L154.731 42.834C154.531 43.298 154.219 43.662 153.795 43.926C153.379 44.182 152.891 44.31 152.331 44.31ZM159.782 44.31C159.19 44.31 158.734 44.15 158.414 43.83C158.094 43.51 157.934 43.058 157.934 42.474V36.558H158.786V42.426C158.786 42.794 158.878 43.078 159.062 43.278C159.254 43.478 159.526 43.578 159.878 43.578C160.254 43.578 160.566 43.47 160.814 43.254L161.114 43.866C160.946 44.018 160.742 44.13 160.502 44.202C160.27 44.274 160.03 44.31 159.782 44.31ZM156.806 38.658V37.95H160.706V38.658H156.806ZM167.089 44.25L164.713 37.95H165.529L167.689 43.794H167.317L169.537 37.95H170.269L172.465 43.794H172.093L174.289 37.95H175.069L172.681 44.25H171.877L169.765 38.754H170.017L167.893 44.25H167.089ZM176.352 44.25V37.95H177.204V44.25H176.352ZM176.784 36.558C176.608 36.558 176.46 36.498 176.34 36.378C176.22 36.258 176.16 36.114 176.16 35.946C176.16 35.778 176.22 35.638 176.34 35.526C176.46 35.406 176.608 35.346 176.784 35.346C176.96 35.346 177.108 35.402 177.228 35.514C177.348 35.626 177.408 35.766 177.408 35.934C177.408 36.11 177.348 36.258 177.228 36.378C177.116 36.498 176.968 36.558 176.784 36.558ZM181.567 44.31C180.975 44.31 180.519 44.15 180.199 43.83C179.879 43.51 179.719 43.058 179.719 42.474V36.558H180.571V42.426C180.571 42.794 180.663 43.078 180.847 43.278C181.039 43.478 181.311 43.578 181.663 43.578C182.039 43.578 182.351 43.47 182.599 43.254L182.899 43.866C182.731 44.018 182.527 44.13 182.287 44.202C182.055 44.274 181.815 44.31 181.567 44.31ZM178.591 38.658V37.95H182.491V38.658H178.591ZM187.666 37.89C188.178 37.89 188.626 37.99 189.01 38.19C189.402 38.382 189.706 38.678 189.922 39.078C190.146 39.478 190.258 39.982 190.258 40.59V44.25H189.406V40.674C189.406 40.01 189.238 39.51 188.902 39.174C188.574 38.83 188.11 38.658 187.51 38.658C187.062 38.658 186.67 38.75 186.334 38.934C186.006 39.11 185.75 39.37 185.566 39.714C185.39 40.05 185.302 40.458 185.302 40.938V44.25H184.45V35.346H185.302V39.678L185.134 39.354C185.334 38.898 185.654 38.542 186.094 38.286C186.534 38.022 187.058 37.89 187.666 37.89ZM195.748 46.638C195.452 46.638 195.168 46.59 194.896 46.494C194.632 46.398 194.404 46.254 194.212 46.062L194.608 45.426C194.768 45.578 194.94 45.694 195.124 45.774C195.316 45.862 195.528 45.906 195.76 45.906C196.04 45.906 196.28 45.826 196.48 45.666C196.688 45.514 196.884 45.242 197.068 44.85L197.476 43.926L197.572 43.794L200.164 37.95H201.004L197.848 45.006C197.672 45.414 197.476 45.738 197.26 45.978C197.052 46.218 196.824 46.386 196.576 46.482C196.328 46.586 196.052 46.638 195.748 46.638ZM197.428 44.43L194.524 37.95H195.412L197.98 43.734L197.428 44.43ZM204.596 44.31C203.988 44.31 203.44 44.174 202.952 43.902C202.472 43.622 202.092 43.242 201.812 42.762C201.532 42.274 201.392 41.718 201.392 41.094C201.392 40.462 201.532 39.906 201.812 39.426C202.092 38.946 202.472 38.57 202.952 38.298C203.432 38.026 203.98 37.89 204.596 37.89C205.22 37.89 205.772 38.026 206.252 38.298C206.74 38.57 207.12 38.946 207.392 39.426C207.672 39.906 207.812 40.462 207.812 41.094C207.812 41.718 207.672 42.274 207.392 42.762C207.12 43.242 206.74 43.622 206.252 43.902C205.764 44.174 205.212 44.31 204.596 44.31ZM204.596 43.554C205.052 43.554 205.456 43.454 205.808 43.254C206.16 43.046 206.436 42.758 206.636 42.39C206.844 42.014 206.948 41.582 206.948 41.094C206.948 40.598 206.844 40.166 206.636 39.798C206.436 39.43 206.16 39.146 205.808 38.946C205.456 38.738 205.056 38.634 204.608 38.634C204.16 38.634 203.76 38.738 203.408 38.946C203.056 39.146 202.776 39.43 202.568 39.798C202.36 40.166 202.256 40.598 202.256 41.094C202.256 41.582 202.36 42.014 202.568 42.39C202.776 42.758 203.056 43.046 203.408 43.254C203.76 43.454 204.156 43.554 204.596 43.554ZM212.155 44.31C211.619 44.31 211.151 44.21 210.751 44.01C210.351 43.81 210.039 43.51 209.815 43.11C209.599 42.71 209.491 42.21 209.491 41.61V37.95H210.343V41.514C210.343 42.186 210.507 42.694 210.835 43.038C211.171 43.374 211.639 43.542 212.239 43.542C212.679 43.542 213.059 43.454 213.379 43.278C213.707 43.094 213.955 42.83 214.123 42.486C214.299 42.142 214.387 41.73 214.387 41.25V37.95H215.239V44.25H214.423V42.522L214.555 42.834C214.355 43.298 214.043 43.662 213.619 43.926C213.203 44.182 212.715 44.31 212.155 44.31ZM217.614 44.25V37.95H218.43V39.666L218.346 39.366C218.522 38.886 218.818 38.522 219.234 38.274C219.65 38.018 220.166 37.89 220.782 37.89V38.718C220.75 38.718 220.718 38.718 220.686 38.718C220.654 38.71 220.622 38.706 220.59 38.706C219.926 38.706 219.406 38.91 219.03 39.318C218.654 39.718 218.466 40.29 218.466 41.034V44.25H217.614ZM224.407 44.25L228.247 35.85H229.123L232.963 44.25H232.027L228.499 36.366H228.859L225.331 44.25H224.407ZM225.919 42.006L226.183 41.286H231.067L231.331 42.006H225.919ZM237.424 44.31C236.88 44.31 236.388 44.186 235.948 43.938C235.508 43.682 235.156 43.318 234.892 42.846C234.636 42.366 234.508 41.782 234.508 41.094C234.508 40.406 234.636 39.826 234.892 39.354C235.148 38.874 235.496 38.51 235.936 38.262C236.376 38.014 236.872 37.89 237.424 37.89C238.024 37.89 238.56 38.026 239.032 38.298C239.512 38.562 239.888 38.938 240.16 39.426C240.432 39.906 240.568 40.462 240.568 41.094C240.568 41.734 240.432 42.294 240.16 42.774C239.888 43.254 239.512 43.63 239.032 43.902C238.56 44.174 238.024 44.31 237.424 44.31ZM234.172 46.578V37.95H234.988V39.846L234.904 41.106L235.024 42.378V46.578H234.172ZM237.364 43.554C237.812 43.554 238.212 43.454 238.564 43.254C238.916 43.046 239.196 42.758 239.404 42.39C239.612 42.014 239.716 41.582 239.716 41.094C239.716 40.606 239.612 40.178 239.404 39.81C239.196 39.442 238.916 39.154 238.564 38.946C238.212 38.738 237.812 38.634 237.364 38.634C236.916 38.634 236.512 38.738 236.152 38.946C235.8 39.154 235.52 39.442 235.312 39.81C235.112 40.178 235.012 40.606 235.012 41.094C235.012 41.582 235.112 42.014 235.312 42.39C235.52 42.758 235.8 43.046 236.152 43.254C236.512 43.454 236.916 43.554 237.364 43.554ZM245.557 44.31C245.013 44.31 244.521 44.186 244.081 43.938C243.641 43.682 243.289 43.318 243.025 42.846C242.769 42.366 242.641 41.782 242.641 41.094C242.641 40.406 242.769 39.826 243.025 39.354C243.281 38.874 243.629 38.51 244.069 38.262C244.509 38.014 245.005 37.89 245.557 37.89C246.157 37.89 246.693 38.026 247.165 38.298C247.645 38.562 248.021 38.938 248.293 39.426C248.565 39.906 248.701 40.462 248.701 41.094C248.701 41.734 248.565 42.294 248.293 42.774C248.021 43.254 247.645 43.63 247.165 43.902C246.693 44.174 246.157 44.31 245.557 44.31ZM242.305 46.578V37.95H243.121V39.846L243.037 41.106L243.157 42.378V46.578H242.305ZM245.497 43.554C245.945 43.554 246.345 43.454 246.697 43.254C247.049 43.046 247.329 42.758 247.537 42.39C247.745 42.014 247.849 41.582 247.849 41.094C247.849 40.606 247.745 40.178 247.537 39.81C247.329 39.442 247.049 39.154 246.697 38.946C246.345 38.738 245.945 38.634 245.497 38.634C245.049 38.634 244.645 38.738 244.285 38.946C243.933 39.154 243.653 39.442 243.445 39.81C243.245 40.178 243.145 40.606 243.145 41.094C243.145 41.582 243.245 42.014 243.445 42.39C243.653 42.758 243.933 43.046 244.285 43.254C244.645 43.454 245.049 43.554 245.497 43.554ZM250.438 44.25V35.346H251.29V44.25H250.438ZM256.337 44.31C255.681 44.31 255.105 44.174 254.609 43.902C254.113 43.622 253.725 43.242 253.445 42.762C253.165 42.274 253.025 41.718 253.025 41.094C253.025 40.47 253.157 39.918 253.421 39.438C253.693 38.958 254.061 38.582 254.525 38.31C254.997 38.03 255.525 37.89 256.109 37.89C256.701 37.89 257.225 38.026 257.681 38.298C258.145 38.562 258.509 38.938 258.773 39.426C259.037 39.906 259.169 40.462 259.169 41.094C259.169 41.134 259.165 41.178 259.157 41.226C259.157 41.266 259.157 41.31 259.157 41.358H253.673V40.722H258.701L258.365 40.974C258.365 40.518 258.265 40.114 258.065 39.762C257.873 39.402 257.609 39.122 257.273 38.922C256.937 38.722 256.549 38.622 256.109 38.622C255.677 38.622 255.289 38.722 254.945 38.922C254.601 39.122 254.333 39.402 254.141 39.762C253.949 40.122 253.853 40.534 253.853 40.998V41.13C253.853 41.61 253.957 42.034 254.165 42.402C254.381 42.762 254.677 43.046 255.053 43.254C255.437 43.454 255.873 43.554 256.361 43.554C256.745 43.554 257.101 43.486 257.429 43.35C257.765 43.214 258.053 43.006 258.293 42.726L258.773 43.278C258.493 43.614 258.141 43.87 257.717 44.046C257.301 44.222 256.841 44.31 256.337 44.31ZM266.551 44.31C265.951 44.31 265.411 44.174 264.931 43.902C264.459 43.63 264.087 43.254 263.815 42.774C263.543 42.286 263.407 41.726 263.407 41.094C263.407 40.454 263.543 39.894 263.815 39.414C264.087 38.934 264.459 38.562 264.931 38.298C265.411 38.026 265.951 37.89 266.551 37.89C267.103 37.89 267.595 38.014 268.027 38.262C268.467 38.51 268.815 38.874 269.071 39.354C269.335 39.826 269.467 40.406 269.467 41.094C269.467 41.774 269.339 42.354 269.083 42.834C268.827 43.314 268.479 43.682 268.039 43.938C267.607 44.186 267.111 44.31 266.551 44.31ZM266.611 43.554C267.059 43.554 267.459 43.454 267.811 43.254C268.171 43.046 268.451 42.758 268.651 42.39C268.859 42.014 268.963 41.582 268.963 41.094C268.963 40.598 268.859 40.166 268.651 39.798C268.451 39.43 268.171 39.146 267.811 38.946C267.459 38.738 267.059 38.634 266.611 38.634C266.171 38.634 265.775 38.738 265.423 38.946C265.071 39.146 264.791 39.43 264.583 39.798C264.375 40.166 264.271 40.598 264.271 41.094C264.271 41.582 264.375 42.014 264.583 42.39C264.791 42.758 265.071 43.046 265.423 43.254C265.775 43.454 266.171 43.554 266.611 43.554ZM268.987 44.25V42.354L269.071 41.082L268.951 39.81V35.346H269.803V44.25H268.987ZM274.852 44.31C274.196 44.31 273.62 44.174 273.124 43.902C272.628 43.622 272.24 43.242 271.96 42.762C271.68 42.274 271.54 41.718 271.54 41.094C271.54 40.47 271.672 39.918 271.936 39.438C272.208 38.958 272.576 38.582 273.04 38.31C273.512 38.03 274.04 37.89 274.624 37.89C275.216 37.89 275.74 38.026 276.196 38.298C276.66 38.562 277.024 38.938 277.288 39.426C277.552 39.906 277.684 40.462 277.684 41.094C277.684 41.134 277.68 41.178 277.672 41.226C277.672 41.266 277.672 41.31 277.672 41.358H272.188V40.722H277.216L276.88 40.974C276.88 40.518 276.78 40.114 276.58 39.762C276.388 39.402 276.124 39.122 275.788 38.922C275.452 38.722 275.064 38.622 274.624 38.622C274.192 38.622 273.804 38.722 273.46 38.922C273.116 39.122 272.848 39.402 272.656 39.762C272.464 40.122 272.368 40.534 272.368 40.998V41.13C272.368 41.61 272.472 42.034 272.68 42.402C272.896 42.762 273.192 43.046 273.568 43.254C273.952 43.454 274.388 43.554 274.876 43.554C275.26 43.554 275.616 43.486 275.944 43.35C276.28 43.214 276.568 43.006 276.808 42.726L277.288 43.278C277.008 43.614 276.656 43.87 276.232 44.046C275.816 44.222 275.356 44.31 274.852 44.31ZM280.921 44.25L278.125 37.95H279.013L281.581 43.794H281.161L283.765 37.95H284.605L281.797 44.25H280.921ZM285.805 44.25V37.95H286.657V44.25H285.805ZM286.237 36.558C286.061 36.558 285.913 36.498 285.793 36.378C285.673 36.258 285.613 36.114 285.613 35.946C285.613 35.778 285.673 35.638 285.793 35.526C285.913 35.406 286.061 35.346 286.237 35.346C286.413 35.346 286.561 35.402 286.681 35.514C286.801 35.626 286.861 35.766 286.861 35.934C286.861 36.11 286.801 36.258 286.681 36.378C286.569 36.498 286.421 36.558 286.237 36.558ZM291.644 44.31C291.02 44.31 290.46 44.174 289.964 43.902C289.476 43.622 289.092 43.242 288.812 42.762C288.532 42.274 288.392 41.718 288.392 41.094C288.392 40.462 288.532 39.906 288.812 39.426C289.092 38.946 289.476 38.57 289.964 38.298C290.46 38.026 291.02 37.89 291.644 37.89C292.18 37.89 292.664 37.994 293.096 38.202C293.528 38.41 293.868 38.722 294.116 39.138L293.48 39.57C293.264 39.25 292.996 39.014 292.676 38.862C292.356 38.71 292.008 38.634 291.632 38.634C291.184 38.634 290.78 38.738 290.42 38.946C290.06 39.146 289.776 39.43 289.568 39.798C289.36 40.166 289.256 40.598 289.256 41.094C289.256 41.59 289.36 42.022 289.568 42.39C289.776 42.758 290.06 43.046 290.42 43.254C290.78 43.454 291.184 43.554 291.632 43.554C292.008 43.554 292.356 43.478 292.676 43.326C292.996 43.174 293.264 42.942 293.48 42.63L294.116 43.062C293.868 43.47 293.528 43.782 293.096 43.998C292.664 44.206 292.18 44.31 291.644 44.31ZM298.36 44.31C297.704 44.31 297.128 44.174 296.632 43.902C296.136 43.622 295.748 43.242 295.468 42.762C295.188 42.274 295.048 41.718 295.048 41.094C295.048 40.47 295.18 39.918 295.444 39.438C295.716 38.958 296.084 38.582 296.548 38.31C297.02 38.03 297.548 37.89 298.132 37.89C298.724 37.89 299.248 38.026 299.704 38.298C300.168 38.562 300.532 38.938 300.796 39.426C301.06 39.906 301.192 40.462 301.192 41.094C301.192 41.134 301.188 41.178 301.18 41.226C301.18 41.266 301.18 41.31 301.18 41.358H295.696V40.722H300.724L300.388 40.974C300.388 40.518 300.288 40.114 300.088 39.762C299.896 39.402 299.632 39.122 299.296 38.922C298.96 38.722 298.572 38.622 298.132 38.622C297.7 38.622 297.312 38.722 296.968 38.922C296.624 39.122 296.356 39.402 296.164 39.762C295.972 40.122 295.876 40.534 295.876 40.998V41.13C295.876 41.61 295.98 42.034 296.188 42.402C296.404 42.762 296.7 43.046 297.076 43.254C297.46 43.454 297.896 43.554 298.384 43.554C298.768 43.554 299.124 43.486 299.452 43.35C299.788 43.214 300.076 43.006 300.316 42.726L300.796 43.278C300.516 43.614 300.164 43.87 299.74 44.046C299.324 44.222 298.864 44.31 298.36 44.31Z" fill="#05162C"/>
</g>
<defs>
<filter id="filter0_d_1131_4789" x="16" y="129.25" width="305" height="60" filterUnits="userSpaceOnUse" color-interpolation-filters="sRGB">
<feFlood flood-opacity="0" result="BackgroundImageFix"/>
<feColorMatrix in="SourceAlpha" type="matrix" values="0 0 0 0 0 0 0 0 0 0 0 0 0 0 0 0 0 0 127 0" result="hardAlpha"/>
<feOffset/>
<feGaussianBlur stdDeviation="6"/>
<feComposite in2="hardAlpha" operator="out"/>
<feColorMatrix type="matrix" values="0 0 0 0 0.125 0 0 0 0 0.125 0 0 0 0 0.125 0 0 0 0.1 0"/>
<feBlend mode="normal" in2="BackgroundImageFix" result="effect1_dropShadow_1131_4789"/>
<feBlend mode="normal" in="SourceGraphic" in2="effect1_dropShadow_1131_4789" result="shape"/>
</filter>
<filter id="filter1_d_1131_4789" x="1" y="69.75" width="255" height="60" filterUnits="userSpaceOnUse" color-interpolation-filters="sRGB">
<feFlood flood-opacity="0" result="BackgroundImageFix"/>
<feColorMatrix in="SourceAlpha" type="matrix" values="0 0 0 0 0 0 0 0 0 0 0 0 0 0 0 0 0 0 127 0" result="hardAlpha"/>
<feOffset/>
<feGaussianBlur stdDeviation="6"/>
<feComposite in2="hardAlpha" operator="out"/>
<feColorMatrix type="matrix" values="0 0 0 0 0.125 0 0 0 0 0.125 0 0 0 0 0.125 0 0 0 0.1 0"/>
<feBlend mode="normal" in2="BackgroundImageFix" result="effect1_dropShadow_1131_4789"/>
<feBlend mode="normal" in="SourceGraphic" in2="effect1_dropShadow_1131_4789" result="shape"/>
</filter>
<filter id="filter2_d_1131_4789" x="23" y="9.75" width="303" height="60" filterUnits="userSpaceOnUse" color-interpolation-filters="sRGB">
<feFlood flood-opacity="0" result="BackgroundImageFix"/>
<feColorMatrix in="SourceAlpha" type="matrix" values="0 0 0 0 0 0 0 0 0 0 0 0 0 0 0 0 0 0 127 0" result="hardAlpha"/>
<feOffset/>
<feGaussianBlur stdDeviation="6"/>
<feComposite in2="hardAlpha" operator="out"/>
<feColorMatrix type="matrix" values="0 0 0 0 0.125 0 0 0 0 0.125 0 0 0 0 0.125 0 0 0 0.1 0"/>
<feBlend mode="normal" in2="BackgroundImageFix" result="effect1_dropShadow_1131_4789"/>
<feBlend mode="normal" in="SourceGraphic" in2="effect1_dropShadow_1131_4789" result="shape"/>
</filter>
<linearGradient id="paint0_linear_1131_4789" x1="71.3293" y1="48.2785" x2="131.843" y2="178.309" gradientUnits="userSpaceOnUse">
<stop offset="0.0961538" stop-color="#76B0F0"/>
<stop offset="0.677885" stop-color="#1877F2"/>
<stop offset="0.855769" stop-color="#A3CBEF"/>
</linearGradient>
<clipPath id="clip0_1131_4789">
<rect width="20" height="20" fill="white" transform="translate(21 89.75)"/>
</clipPath>
</defs>
</svg>
