<svg width="339" height="43" viewBox="0 0 339 43" fill="none" xmlns="http://www.w3.org/2000/svg">
<path d="M5.02384 9.44201L8.51058 9.47508C8.55231 9.47587 8.59315 9.48724 8.6293 9.50811C8.66544 9.52897 8.6957 9.55866 8.71726 9.5944L10.4893 12.5975C10.5165 12.6429 10.5578 12.6782 10.6069 12.6981C10.656 12.718 10.7102 12.7213 10.7614 12.7076C10.8126 12.6939 10.8579 12.6639 10.8905 12.6221C10.9231 12.5804 10.9412 12.5291 10.942 12.4762L10.9751 8.98941C10.9759 8.94768 10.9873 8.90684 11.0081 8.8707C11.029 8.83455 11.0587 8.80429 11.0944 8.78274L14.0975 7.01073C14.1429 6.98349 14.1783 6.9422 14.1981 6.89309C14.218 6.84399 14.2213 6.78975 14.2076 6.73858C14.1939 6.68741 14.1639 6.64211 14.1221 6.60951C14.0804 6.57692 14.0291 6.55882 13.9762 6.55795L10.4894 6.52488C10.4477 6.52409 10.4069 6.51272 10.3707 6.49185C10.3346 6.47099 10.3043 6.4413 10.2828 6.40556L8.51076 3.40249C8.48352 3.35705 8.44223 3.32173 8.39313 3.30186C8.34402 3.28199 8.28978 3.27866 8.23861 3.29237C8.18745 3.30608 8.14214 3.33609 8.10955 3.37785C8.07696 3.4196 8.05886 3.47084 8.05798 3.52381L8.02492 7.01055C8.02412 7.05228 8.01275 7.09312 7.99189 7.12926C7.97102 7.16541 7.94133 7.19567 7.90559 7.21722L4.90252 8.98923C4.85709 9.01647 4.82176 9.05776 4.80189 9.10687C4.78203 9.15597 4.7787 9.21021 4.79241 9.26138C4.80612 9.31255 4.83612 9.35785 4.87788 9.39045C4.91964 9.42304 4.97088 9.44114 5.02384 9.44201Z" stroke="#145DB8" stroke-width="0.46875" stroke-linecap="round" stroke-linejoin="round"/>
<path d="M37.0238 9.44201L40.5106 9.47508C40.5523 9.47587 40.5932 9.48724 40.6293 9.50811C40.6654 9.52897 40.6957 9.55866 40.7173 9.5944L42.4893 12.5975C42.5165 12.6429 42.5578 12.6782 42.6069 12.6981C42.656 12.718 42.7102 12.7213 42.7614 12.7076C42.8126 12.6939 42.8579 12.6639 42.8905 12.6221C42.9231 12.5804 42.9412 12.5291 42.942 12.4762L42.9751 8.98941C42.9759 8.94768 42.9873 8.90684 43.0081 8.8707C43.029 8.83455 43.0587 8.80429 43.0944 8.78274L46.0975 7.01073C46.1429 6.98349 46.1783 6.9422 46.1981 6.89309C46.218 6.84399 46.2213 6.78975 46.2076 6.73858C46.1939 6.68741 46.1639 6.64211 46.1221 6.60951C46.0804 6.57692 46.0291 6.55882 45.9762 6.55795L42.4894 6.52488C42.4477 6.52409 42.4069 6.51272 42.3707 6.49185C42.3346 6.47099 42.3043 6.4413 42.2828 6.40556L40.5108 3.40249C40.4835 3.35705 40.4422 3.32173 40.3931 3.30186C40.344 3.28199 40.2898 3.27866 40.2386 3.29237C40.1874 3.30608 40.1421 3.33609 40.1095 3.37785C40.077 3.4196 40.0589 3.47084 40.058 3.52381L40.0249 7.01055C40.0241 7.05228 40.0128 7.09312 39.9919 7.12926C39.971 7.16541 39.9413 7.19567 39.9056 7.21722L36.9025 8.98923C36.8571 9.01647 36.8218 9.05776 36.8019 9.10687C36.782 9.15597 36.7787 9.21021 36.7924 9.26138C36.8061 9.31255 36.8361 9.35785 36.8779 9.39045C36.9196 9.42304 36.9709 9.44114 37.0238 9.44201Z" stroke="#145DB8" stroke-width="0.46875" stroke-linecap="round" stroke-linejoin="round"/>
<path d="M69.0238 9.44201L72.5106 9.47508C72.5523 9.47587 72.5932 9.48724 72.6293 9.50811C72.6654 9.52897 72.6957 9.55866 72.7173 9.5944L74.4893 12.5975C74.5165 12.6429 74.5578 12.6782 74.6069 12.6981C74.656 12.718 74.7102 12.7213 74.7614 12.7076C74.8126 12.6939 74.8579 12.6639 74.8905 12.6221C74.9231 12.5804 74.9412 12.5291 74.942 12.4762L74.9751 8.98941C74.9759 8.94768 74.9873 8.90684 75.0081 8.8707C75.029 8.83455 75.0587 8.80429 75.0944 8.78274L78.0975 7.01073C78.1429 6.98349 78.1783 6.9422 78.1981 6.89309C78.218 6.84399 78.2213 6.78975 78.2076 6.73858C78.1939 6.68741 78.1639 6.64211 78.1221 6.60951C78.0804 6.57692 78.0291 6.55882 77.9762 6.55795L74.4894 6.52488C74.4477 6.52409 74.4069 6.51272 74.3707 6.49185C74.3346 6.47099 74.3043 6.4413 74.2828 6.40556L72.5108 3.40249C72.4835 3.35705 72.4422 3.32173 72.3931 3.30186C72.344 3.28199 72.2898 3.27866 72.2386 3.29237C72.1874 3.30608 72.1421 3.33609 72.1095 3.37785C72.077 3.4196 72.0589 3.47084 72.058 3.52381L72.0249 7.01055C72.0241 7.05228 72.0128 7.09312 71.9919 7.12926C71.971 7.16541 71.9413 7.19567 71.9056 7.21722L68.9025 8.98923C68.8571 9.01647 68.8218 9.05776 68.8019 9.10687C68.782 9.15597 68.7787 9.21021 68.7924 9.26138C68.8061 9.31255 68.8361 9.35785 68.8779 9.39045C68.9196 9.42304 68.9709 9.44114 69.0238 9.44201Z" fill="url(#paint0_linear_1114_4091)" stroke="#145DB8" stroke-width="0.125" stroke-linecap="round" stroke-linejoin="round"/>
<path d="M101.024 9.44201L104.511 9.47508C104.552 9.47587 104.593 9.48724 104.629 9.50811C104.665 9.52897 104.696 9.55866 104.717 9.5944L106.489 12.5975C106.517 12.6429 106.558 12.6782 106.607 12.6981C106.656 12.718 106.71 12.7213 106.761 12.7076C106.813 12.6939 106.858 12.6639 106.89 12.6221C106.923 12.5804 106.941 12.5291 106.942 12.4762L106.975 8.98941C106.976 8.94768 106.987 8.90684 107.008 8.8707C107.029 8.83455 107.059 8.80429 107.094 8.78274L110.098 7.01073C110.143 6.98349 110.178 6.9422 110.198 6.89309C110.218 6.84399 110.221 6.78975 110.208 6.73858C110.194 6.68741 110.164 6.64211 110.122 6.60951C110.08 6.57692 110.029 6.55882 109.976 6.55795L106.489 6.52488C106.448 6.52409 106.407 6.51272 106.371 6.49185C106.335 6.47099 106.304 6.4413 106.283 6.40556L104.511 3.40249C104.484 3.35705 104.442 3.32173 104.393 3.30186C104.344 3.28199 104.29 3.27866 104.239 3.29237C104.187 3.30608 104.142 3.33609 104.11 3.37785C104.077 3.4196 104.059 3.47084 104.058 3.52381L104.025 7.01055C104.024 7.05228 104.013 7.09312 103.992 7.12926C103.971 7.16541 103.941 7.19567 103.906 7.21722L100.903 8.98923C100.857 9.01647 100.822 9.05776 100.802 9.10687C100.782 9.15597 100.779 9.21021 100.792 9.26138C100.806 9.31255 100.836 9.35785 100.878 9.39045C100.92 9.42304 100.971 9.44114 101.024 9.44201Z" stroke="#145DB8" stroke-width="0.46875" stroke-linecap="round" stroke-linejoin="round"/>
<path d="M133.024 9.44201L136.511 9.47508C136.552 9.47587 136.593 9.48724 136.629 9.50811C136.665 9.52897 136.696 9.55866 136.717 9.5944L138.489 12.5975C138.517 12.6429 138.558 12.6782 138.607 12.6981C138.656 12.718 138.71 12.7213 138.761 12.7076C138.813 12.6939 138.858 12.6639 138.89 12.6221C138.923 12.5804 138.941 12.5291 138.942 12.4762L138.975 8.98941C138.976 8.94768 138.987 8.90684 139.008 8.8707C139.029 8.83455 139.059 8.80429 139.094 8.78274L142.098 7.01073C142.143 6.98349 142.178 6.9422 142.198 6.89309C142.218 6.84399 142.221 6.78975 142.208 6.73858C142.194 6.68741 142.164 6.64211 142.122 6.60951C142.08 6.57692 142.029 6.55882 141.976 6.55795L138.489 6.52488C138.448 6.52409 138.407 6.51272 138.371 6.49185C138.335 6.47099 138.304 6.4413 138.283 6.40556L136.511 3.40249C136.484 3.35705 136.442 3.32173 136.393 3.30186C136.344 3.28199 136.29 3.27866 136.239 3.29237C136.187 3.30608 136.142 3.33609 136.11 3.37785C136.077 3.4196 136.059 3.47084 136.058 3.52381L136.025 7.01055C136.024 7.05228 136.013 7.09312 135.992 7.12926C135.971 7.16541 135.941 7.19567 135.906 7.21722L132.903 8.98923C132.857 9.01647 132.822 9.05776 132.802 9.10687C132.782 9.15597 132.779 9.21021 132.792 9.26138C132.806 9.31255 132.836 9.35785 132.878 9.39045C132.92 9.42304 132.971 9.44114 133.024 9.44201Z" stroke="#145DB8" stroke-width="0.46875" stroke-linecap="round" stroke-linejoin="round"/>
<path d="M165.024 9.44201L168.511 9.47508C168.552 9.47587 168.593 9.48724 168.629 9.50811C168.665 9.52897 168.696 9.55866 168.717 9.5944L170.489 12.5975C170.517 12.6429 170.558 12.6782 170.607 12.6981C170.656 12.718 170.71 12.7213 170.761 12.7076C170.813 12.6939 170.858 12.6639 170.89 12.6221C170.923 12.5804 170.941 12.5291 170.942 12.4762L170.975 8.98941C170.976 8.94768 170.987 8.90684 171.008 8.8707C171.029 8.83455 171.059 8.80429 171.094 8.78274L174.098 7.01073C174.143 6.98349 174.178 6.9422 174.198 6.89309C174.218 6.84399 174.221 6.78975 174.208 6.73858C174.194 6.68741 174.164 6.64211 174.122 6.60951C174.08 6.57692 174.029 6.55882 173.976 6.55795L170.489 6.52488C170.448 6.52409 170.407 6.51272 170.371 6.49185C170.335 6.47099 170.304 6.4413 170.283 6.40556L168.511 3.40249C168.484 3.35705 168.442 3.32173 168.393 3.30186C168.344 3.28199 168.29 3.27866 168.239 3.29237C168.187 3.30608 168.142 3.33609 168.11 3.37785C168.077 3.4196 168.059 3.47084 168.058 3.52381L168.025 7.01055C168.024 7.05228 168.013 7.09312 167.992 7.12926C167.971 7.16541 167.941 7.19567 167.906 7.21722L164.903 8.98923C164.857 9.01647 164.822 9.05776 164.802 9.10687C164.782 9.15597 164.779 9.21021 164.792 9.26138C164.806 9.31255 164.836 9.35785 164.878 9.39045C164.92 9.42304 164.971 9.44114 165.024 9.44201Z" stroke="#145DB8" stroke-width="0.46875" stroke-linecap="round" stroke-linejoin="round"/>
<path d="M197.024 9.44201L200.511 9.47508C200.552 9.47587 200.593 9.48724 200.629 9.50811C200.665 9.52897 200.696 9.55866 200.717 9.5944L202.489 12.5975C202.517 12.6429 202.558 12.6782 202.607 12.6981C202.656 12.718 202.71 12.7213 202.761 12.7076C202.813 12.6939 202.858 12.6639 202.89 12.6221C202.923 12.5804 202.941 12.5291 202.942 12.4762L202.975 8.98941C202.976 8.94768 202.987 8.90684 203.008 8.8707C203.029 8.83455 203.059 8.80429 203.094 8.78274L206.098 7.01073C206.143 6.98349 206.178 6.9422 206.198 6.89309C206.218 6.84399 206.221 6.78975 206.208 6.73858C206.194 6.68741 206.164 6.64211 206.122 6.60951C206.08 6.57692 206.029 6.55882 205.976 6.55795L202.489 6.52488C202.448 6.52409 202.407 6.51272 202.371 6.49185C202.335 6.47099 202.304 6.4413 202.283 6.40556L200.511 3.40249C200.484 3.35705 200.442 3.32173 200.393 3.30186C200.344 3.28199 200.29 3.27866 200.239 3.29237C200.187 3.30608 200.142 3.33609 200.11 3.37785C200.077 3.4196 200.059 3.47084 200.058 3.52381L200.025 7.01055C200.024 7.05228 200.013 7.09312 199.992 7.12926C199.971 7.16541 199.941 7.19567 199.906 7.21722L196.903 8.98923C196.857 9.01647 196.822 9.05776 196.802 9.10687C196.782 9.15597 196.779 9.21021 196.792 9.26138C196.806 9.31255 196.836 9.35785 196.878 9.39045C196.92 9.42304 196.971 9.44114 197.024 9.44201Z" fill="url(#paint1_linear_1114_4091)" stroke="#145DB8" stroke-width="0.125" stroke-linecap="round" stroke-linejoin="round"/>
<path d="M229.024 9.44201L232.511 9.47508C232.552 9.47587 232.593 9.48724 232.629 9.50811C232.665 9.52897 232.696 9.55866 232.717 9.5944L234.489 12.5975C234.517 12.6429 234.558 12.6782 234.607 12.6981C234.656 12.718 234.71 12.7213 234.761 12.7076C234.813 12.6939 234.858 12.6639 234.89 12.6221C234.923 12.5804 234.941 12.5291 234.942 12.4762L234.975 8.98941C234.976 8.94768 234.987 8.90684 235.008 8.8707C235.029 8.83455 235.059 8.80429 235.094 8.78274L238.098 7.01073C238.143 6.98349 238.178 6.9422 238.198 6.89309C238.218 6.84399 238.221 6.78975 238.208 6.73858C238.194 6.68741 238.164 6.64211 238.122 6.60951C238.08 6.57692 238.029 6.55882 237.976 6.55795L234.489 6.52488C234.448 6.52409 234.407 6.51272 234.371 6.49185C234.335 6.47099 234.304 6.4413 234.283 6.40556L232.511 3.40249C232.484 3.35705 232.442 3.32173 232.393 3.30186C232.344 3.28199 232.29 3.27866 232.239 3.29237C232.187 3.30608 232.142 3.33609 232.11 3.37785C232.077 3.4196 232.059 3.47084 232.058 3.52381L232.025 7.01055C232.024 7.05228 232.013 7.09312 231.992 7.12926C231.971 7.16541 231.941 7.19567 231.906 7.21722L228.903 8.98923C228.857 9.01647 228.822 9.05776 228.802 9.10687C228.782 9.15597 228.779 9.21021 228.792 9.26138C228.806 9.31255 228.836 9.35785 228.878 9.39045C228.92 9.42304 228.971 9.44114 229.024 9.44201Z" stroke="#145DB8" stroke-width="0.46875" stroke-linecap="round" stroke-linejoin="round"/>
<path d="M261.024 9.44201L264.511 9.47508C264.552 9.47587 264.593 9.48724 264.629 9.50811C264.665 9.52897 264.696 9.55866 264.717 9.5944L266.489 12.5975C266.517 12.6429 266.558 12.6782 266.607 12.6981C266.656 12.718 266.71 12.7213 266.761 12.7076C266.813 12.6939 266.858 12.6639 266.89 12.6221C266.923 12.5804 266.941 12.5291 266.942 12.4762L266.975 8.98941C266.976 8.94768 266.987 8.90684 267.008 8.8707C267.029 8.83455 267.059 8.80429 267.094 8.78274L270.098 7.01073C270.143 6.98349 270.178 6.9422 270.198 6.89309C270.218 6.84399 270.221 6.78975 270.208 6.73858C270.194 6.68741 270.164 6.64211 270.122 6.60951C270.08 6.57692 270.029 6.55882 269.976 6.55795L266.489 6.52488C266.448 6.52409 266.407 6.51272 266.371 6.49185C266.335 6.47099 266.304 6.4413 266.283 6.40556L264.511 3.40249C264.484 3.35705 264.442 3.32173 264.393 3.30186C264.344 3.28199 264.29 3.27866 264.239 3.29237C264.187 3.30608 264.142 3.33609 264.11 3.37785C264.077 3.4196 264.059 3.47084 264.058 3.52381L264.025 7.01055C264.024 7.05228 264.013 7.09312 263.992 7.12926C263.971 7.16541 263.941 7.19567 263.906 7.21722L260.903 8.98923C260.857 9.01647 260.822 9.05776 260.802 9.10687C260.782 9.15597 260.779 9.21021 260.792 9.26138C260.806 9.31255 260.836 9.35785 260.878 9.39045C260.92 9.42304 260.971 9.44114 261.024 9.44201Z" stroke="#145DB8" stroke-width="0.46875" stroke-linecap="round" stroke-linejoin="round"/>
<path d="M293.024 9.44201L296.511 9.47508C296.552 9.47587 296.593 9.48724 296.629 9.50811C296.665 9.52897 296.696 9.55866 296.717 9.5944L298.489 12.5975C298.517 12.6429 298.558 12.6782 298.607 12.6981C298.656 12.718 298.71 12.7213 298.761 12.7076C298.813 12.6939 298.858 12.6639 298.89 12.6221C298.923 12.5804 298.941 12.5291 298.942 12.4762L298.975 8.98941C298.976 8.94768 298.987 8.90684 299.008 8.8707C299.029 8.83455 299.059 8.80429 299.094 8.78274L302.098 7.01073C302.143 6.98349 302.178 6.9422 302.198 6.89309C302.218 6.84399 302.221 6.78975 302.208 6.73858C302.194 6.68741 302.164 6.64211 302.122 6.60951C302.08 6.57692 302.029 6.55882 301.976 6.55795L298.489 6.52488C298.448 6.52409 298.407 6.51272 298.371 6.49185C298.335 6.47099 298.304 6.4413 298.283 6.40556L296.511 3.40249C296.484 3.35705 296.442 3.32173 296.393 3.30186C296.344 3.28199 296.29 3.27866 296.239 3.29237C296.187 3.30608 296.142 3.33609 296.11 3.37785C296.077 3.4196 296.059 3.47084 296.058 3.52381L296.025 7.01055C296.024 7.05228 296.013 7.09312 295.992 7.12926C295.971 7.16541 295.941 7.19567 295.906 7.21722L292.903 8.98923C292.857 9.01647 292.822 9.05776 292.802 9.10687C292.782 9.15597 292.779 9.21021 292.792 9.26138C292.806 9.31255 292.836 9.35785 292.878 9.39045C292.92 9.42304 292.971 9.44114 293.024 9.44201Z" stroke="#145DB8" stroke-width="0.46875" stroke-linecap="round" stroke-linejoin="round"/>
<path d="M325.024 9.44201L328.511 9.47508C328.552 9.47587 328.593 9.48724 328.629 9.50811C328.665 9.52897 328.696 9.55866 328.717 9.5944L330.489 12.5975C330.517 12.6429 330.558 12.6782 330.607 12.6981C330.656 12.718 330.71 12.7213 330.761 12.7076C330.813 12.6939 330.858 12.6639 330.89 12.6221C330.923 12.5804 330.941 12.5291 330.942 12.4762L330.975 8.98941C330.976 8.94768 330.987 8.90684 331.008 8.8707C331.029 8.83455 331.059 8.80429 331.094 8.78274L334.098 7.01073C334.143 6.98349 334.178 6.9422 334.198 6.89309C334.218 6.84399 334.221 6.78975 334.208 6.73858C334.194 6.68741 334.164 6.64211 334.122 6.60951C334.08 6.57692 334.029 6.55882 333.976 6.55795L330.489 6.52488C330.448 6.52409 330.407 6.51272 330.371 6.49185C330.335 6.47099 330.304 6.4413 330.283 6.40556L328.511 3.40249C328.484 3.35705 328.442 3.32173 328.393 3.30186C328.344 3.28199 328.29 3.27866 328.239 3.29237C328.187 3.30608 328.142 3.33609 328.11 3.37785C328.077 3.4196 328.059 3.47084 328.058 3.52381L328.025 7.01055C328.024 7.05228 328.013 7.09312 327.992 7.12926C327.971 7.16541 327.941 7.19567 327.906 7.21722L324.903 8.98923C324.857 9.01647 324.822 9.05776 324.802 9.10687C324.782 9.15597 324.779 9.21021 324.792 9.26138C324.806 9.31255 324.836 9.35785 324.878 9.39045C324.92 9.42304 324.971 9.44114 325.024 9.44201Z" fill="url(#paint2_linear_1114_4091)" stroke="#145DB8" stroke-width="0.125" stroke-linecap="round" stroke-linejoin="round"/>
<path d="M5.02384 36.442L8.51058 36.4751C8.55231 36.4759 8.59315 36.4872 8.6293 36.5081C8.66544 36.529 8.6957 36.5587 8.71726 36.5944L10.4893 39.5975C10.5165 39.6429 10.5578 39.6782 10.6069 39.6981C10.656 39.718 10.7102 39.7213 10.7614 39.7076C10.8126 39.6939 10.8579 39.6639 10.8905 39.6221C10.9231 39.5804 10.9412 39.5291 10.942 39.4762L10.9751 35.9894C10.9759 35.9477 10.9873 35.9068 11.0081 35.8707C11.029 35.8346 11.0587 35.8043 11.0944 35.7827L14.0975 34.0107C14.1429 33.9835 14.1783 33.9422 14.1981 33.8931C14.218 33.844 14.2213 33.7897 14.2076 33.7386C14.1939 33.6874 14.1639 33.6421 14.1221 33.6095C14.0804 33.5769 14.0291 33.5588 13.9762 33.558L10.4894 33.5249C10.4477 33.5241 10.4069 33.5127 10.3707 33.4919C10.3346 33.471 10.3043 33.4413 10.2828 33.4056L8.51076 30.4025C8.48352 30.3571 8.44223 30.3217 8.39313 30.3019C8.34402 30.282 8.28978 30.2787 8.23861 30.2924C8.18745 30.3061 8.14214 30.3361 8.10955 30.3778C8.07696 30.4196 8.05886 30.4708 8.05798 30.5238L8.02492 34.0105C8.02412 34.0523 8.01275 34.0931 7.99189 34.1293C7.97102 34.1654 7.94133 34.1957 7.90559 34.2172L4.90252 35.9892C4.85709 36.0165 4.82176 36.0578 4.80189 36.1069C4.78203 36.156 4.7787 36.2102 4.79241 36.2614C4.80612 36.3125 4.83612 36.3579 4.87788 36.3904C4.91964 36.423 4.97088 36.4411 5.02384 36.442Z" stroke="#145DB8" stroke-width="0.46875" stroke-linecap="round" stroke-linejoin="round"/>
<path d="M37.0238 36.442L40.5106 36.4751C40.5523 36.4759 40.5932 36.4872 40.6293 36.5081C40.6654 36.529 40.6957 36.5587 40.7173 36.5944L42.4893 39.5975C42.5165 39.6429 42.5578 39.6782 42.6069 39.6981C42.656 39.718 42.7102 39.7213 42.7614 39.7076C42.8126 39.6939 42.8579 39.6639 42.8905 39.6221C42.9231 39.5804 42.9412 39.5291 42.942 39.4762L42.9751 35.9894C42.9759 35.9477 42.9873 35.9068 43.0081 35.8707C43.029 35.8346 43.0587 35.8043 43.0944 35.7827L46.0975 34.0107C46.1429 33.9835 46.1783 33.9422 46.1981 33.8931C46.218 33.844 46.2213 33.7897 46.2076 33.7386C46.1939 33.6874 46.1639 33.6421 46.1221 33.6095C46.0804 33.5769 46.0291 33.5588 45.9762 33.558L42.4894 33.5249C42.4477 33.5241 42.4069 33.5127 42.3707 33.4919C42.3346 33.471 42.3043 33.4413 42.2828 33.4056L40.5108 30.4025C40.4835 30.3571 40.4422 30.3217 40.3931 30.3019C40.344 30.282 40.2898 30.2787 40.2386 30.2924C40.1874 30.3061 40.1421 30.3361 40.1095 30.3778C40.077 30.4196 40.0589 30.4708 40.058 30.5238L40.0249 34.0105C40.0241 34.0523 40.0128 34.0931 39.9919 34.1293C39.971 34.1654 39.9413 34.1957 39.9056 34.2172L36.9025 35.9892C36.8571 36.0165 36.8218 36.0578 36.8019 36.1069C36.782 36.156 36.7787 36.2102 36.7924 36.2614C36.8061 36.3125 36.8361 36.3579 36.8779 36.3904C36.9196 36.423 36.9709 36.4411 37.0238 36.442Z" stroke="#145DB8" stroke-width="0.46875" stroke-linecap="round" stroke-linejoin="round"/>
<path d="M69.0238 36.442L72.5106 36.4751C72.5523 36.4759 72.5932 36.4872 72.6293 36.5081C72.6654 36.529 72.6957 36.5587 72.7173 36.5944L74.4893 39.5975C74.5165 39.6429 74.5578 39.6782 74.6069 39.6981C74.656 39.718 74.7102 39.7213 74.7614 39.7076C74.8126 39.6939 74.8579 39.6639 74.8905 39.6221C74.9231 39.5804 74.9412 39.5291 74.942 39.4762L74.9751 35.9894C74.9759 35.9477 74.9873 35.9068 75.0081 35.8707C75.029 35.8346 75.0587 35.8043 75.0944 35.7827L78.0975 34.0107C78.1429 33.9835 78.1783 33.9422 78.1981 33.8931C78.218 33.844 78.2213 33.7897 78.2076 33.7386C78.1939 33.6874 78.1639 33.6421 78.1221 33.6095C78.0804 33.5769 78.0291 33.5588 77.9762 33.558L74.4894 33.5249C74.4477 33.5241 74.4069 33.5127 74.3707 33.4919C74.3346 33.471 74.3043 33.4413 74.2828 33.4056L72.5108 30.4025C72.4835 30.3571 72.4422 30.3217 72.3931 30.3019C72.344 30.282 72.2898 30.2787 72.2386 30.2924C72.1874 30.3061 72.1421 30.3361 72.1095 30.3778C72.077 30.4196 72.0589 30.4708 72.058 30.5238L72.0249 34.0105C72.0241 34.0523 72.0128 34.0931 71.9919 34.1293C71.971 34.1654 71.9413 34.1957 71.9056 34.2172L68.9025 35.9892C68.8571 36.0165 68.8218 36.0578 68.8019 36.1069C68.782 36.156 68.7787 36.2102 68.7924 36.2614C68.8061 36.3125 68.8361 36.3579 68.8779 36.3904C68.9196 36.423 68.9709 36.4411 69.0238 36.442Z" fill="url(#paint3_linear_1114_4091)" stroke="#145DB8" stroke-width="0.125" stroke-linecap="round" stroke-linejoin="round"/>
<path d="M101.024 36.442L104.511 36.4751C104.552 36.4759 104.593 36.4872 104.629 36.5081C104.665 36.529 104.696 36.5587 104.717 36.5944L106.489 39.5975C106.517 39.6429 106.558 39.6782 106.607 39.6981C106.656 39.718 106.71 39.7213 106.761 39.7076C106.813 39.6939 106.858 39.6639 106.89 39.6221C106.923 39.5804 106.941 39.5291 106.942 39.4762L106.975 35.9894C106.976 35.9477 106.987 35.9068 107.008 35.8707C107.029 35.8346 107.059 35.8043 107.094 35.7827L110.098 34.0107C110.143 33.9835 110.178 33.9422 110.198 33.8931C110.218 33.844 110.221 33.7897 110.208 33.7386C110.194 33.6874 110.164 33.6421 110.122 33.6095C110.08 33.5769 110.029 33.5588 109.976 33.558L106.489 33.5249C106.448 33.5241 106.407 33.5127 106.371 33.4919C106.335 33.471 106.304 33.4413 106.283 33.4056L104.511 30.4025C104.484 30.3571 104.442 30.3217 104.393 30.3019C104.344 30.282 104.29 30.2787 104.239 30.2924C104.187 30.3061 104.142 30.3361 104.11 30.3778C104.077 30.4196 104.059 30.4708 104.058 30.5238L104.025 34.0105C104.024 34.0523 104.013 34.0931 103.992 34.1293C103.971 34.1654 103.941 34.1957 103.906 34.2172L100.903 35.9892C100.857 36.0165 100.822 36.0578 100.802 36.1069C100.782 36.156 100.779 36.2102 100.792 36.2614C100.806 36.3125 100.836 36.3579 100.878 36.3904C100.92 36.423 100.971 36.4411 101.024 36.442Z" stroke="#145DB8" stroke-width="0.46875" stroke-linecap="round" stroke-linejoin="round"/>
<path d="M133.024 36.442L136.511 36.4751C136.552 36.4759 136.593 36.4872 136.629 36.5081C136.665 36.529 136.696 36.5587 136.717 36.5944L138.489 39.5975C138.517 39.6429 138.558 39.6782 138.607 39.6981C138.656 39.718 138.71 39.7213 138.761 39.7076C138.813 39.6939 138.858 39.6639 138.89 39.6221C138.923 39.5804 138.941 39.5291 138.942 39.4762L138.975 35.9894C138.976 35.9477 138.987 35.9068 139.008 35.8707C139.029 35.8346 139.059 35.8043 139.094 35.7827L142.098 34.0107C142.143 33.9835 142.178 33.9422 142.198 33.8931C142.218 33.844 142.221 33.7897 142.208 33.7386C142.194 33.6874 142.164 33.6421 142.122 33.6095C142.08 33.5769 142.029 33.5588 141.976 33.558L138.489 33.5249C138.448 33.5241 138.407 33.5127 138.371 33.4919C138.335 33.471 138.304 33.4413 138.283 33.4056L136.511 30.4025C136.484 30.3571 136.442 30.3217 136.393 30.3019C136.344 30.282 136.29 30.2787 136.239 30.2924C136.187 30.3061 136.142 30.3361 136.11 30.3778C136.077 30.4196 136.059 30.4708 136.058 30.5238L136.025 34.0105C136.024 34.0523 136.013 34.0931 135.992 34.1293C135.971 34.1654 135.941 34.1957 135.906 34.2172L132.903 35.9892C132.857 36.0165 132.822 36.0578 132.802 36.1069C132.782 36.156 132.779 36.2102 132.792 36.2614C132.806 36.3125 132.836 36.3579 132.878 36.3904C132.92 36.423 132.971 36.4411 133.024 36.442Z" stroke="#145DB8" stroke-width="0.46875" stroke-linecap="round" stroke-linejoin="round"/>
<path d="M165.024 36.442L168.511 36.4751C168.552 36.4759 168.593 36.4872 168.629 36.5081C168.665 36.529 168.696 36.5587 168.717 36.5944L170.489 39.5975C170.517 39.6429 170.558 39.6782 170.607 39.6981C170.656 39.718 170.71 39.7213 170.761 39.7076C170.813 39.6939 170.858 39.6639 170.89 39.6221C170.923 39.5804 170.941 39.5291 170.942 39.4762L170.975 35.9894C170.976 35.9477 170.987 35.9068 171.008 35.8707C171.029 35.8346 171.059 35.8043 171.094 35.7827L174.098 34.0107C174.143 33.9835 174.178 33.9422 174.198 33.8931C174.218 33.844 174.221 33.7897 174.208 33.7386C174.194 33.6874 174.164 33.6421 174.122 33.6095C174.08 33.5769 174.029 33.5588 173.976 33.558L170.489 33.5249C170.448 33.5241 170.407 33.5127 170.371 33.4919C170.335 33.471 170.304 33.4413 170.283 33.4056L168.511 30.4025C168.484 30.3571 168.442 30.3217 168.393 30.3019C168.344 30.282 168.29 30.2787 168.239 30.2924C168.187 30.3061 168.142 30.3361 168.11 30.3778C168.077 30.4196 168.059 30.4708 168.058 30.5238L168.025 34.0105C168.024 34.0523 168.013 34.0931 167.992 34.1293C167.971 34.1654 167.941 34.1957 167.906 34.2172L164.903 35.9892C164.857 36.0165 164.822 36.0578 164.802 36.1069C164.782 36.156 164.779 36.2102 164.792 36.2614C164.806 36.3125 164.836 36.3579 164.878 36.3904C164.92 36.423 164.971 36.4411 165.024 36.442Z" stroke="#145DB8" stroke-width="0.46875" stroke-linecap="round" stroke-linejoin="round"/>
<path d="M197.024 36.442L200.511 36.4751C200.552 36.4759 200.593 36.4872 200.629 36.5081C200.665 36.529 200.696 36.5587 200.717 36.5944L202.489 39.5975C202.517 39.6429 202.558 39.6782 202.607 39.6981C202.656 39.718 202.71 39.7213 202.761 39.7076C202.813 39.6939 202.858 39.6639 202.89 39.6221C202.923 39.5804 202.941 39.5291 202.942 39.4762L202.975 35.9894C202.976 35.9477 202.987 35.9068 203.008 35.8707C203.029 35.8346 203.059 35.8043 203.094 35.7827L206.098 34.0107C206.143 33.9835 206.178 33.9422 206.198 33.8931C206.218 33.844 206.221 33.7897 206.208 33.7386C206.194 33.6874 206.164 33.6421 206.122 33.6095C206.08 33.5769 206.029 33.5588 205.976 33.558L202.489 33.5249C202.448 33.5241 202.407 33.5127 202.371 33.4919C202.335 33.471 202.304 33.4413 202.283 33.4056L200.511 30.4025C200.484 30.3571 200.442 30.3217 200.393 30.3019C200.344 30.282 200.29 30.2787 200.239 30.2924C200.187 30.3061 200.142 30.3361 200.11 30.3778C200.077 30.4196 200.059 30.4708 200.058 30.5238L200.025 34.0105C200.024 34.0523 200.013 34.0931 199.992 34.1293C199.971 34.1654 199.941 34.1957 199.906 34.2172L196.903 35.9892C196.857 36.0165 196.822 36.0578 196.802 36.1069C196.782 36.156 196.779 36.2102 196.792 36.2614C196.806 36.3125 196.836 36.3579 196.878 36.3904C196.92 36.423 196.971 36.4411 197.024 36.442Z" fill="url(#paint4_linear_1114_4091)" stroke="#145DB8" stroke-width="0.125" stroke-linecap="round" stroke-linejoin="round"/>
<path d="M229.024 36.442L232.511 36.4751C232.552 36.4759 232.593 36.4872 232.629 36.5081C232.665 36.529 232.696 36.5587 232.717 36.5944L234.489 39.5975C234.517 39.6429 234.558 39.6782 234.607 39.6981C234.656 39.718 234.71 39.7213 234.761 39.7076C234.813 39.6939 234.858 39.6639 234.89 39.6221C234.923 39.5804 234.941 39.5291 234.942 39.4762L234.975 35.9894C234.976 35.9477 234.987 35.9068 235.008 35.8707C235.029 35.8346 235.059 35.8043 235.094 35.7827L238.098 34.0107C238.143 33.9835 238.178 33.9422 238.198 33.8931C238.218 33.844 238.221 33.7897 238.208 33.7386C238.194 33.6874 238.164 33.6421 238.122 33.6095C238.08 33.5769 238.029 33.5588 237.976 33.558L234.489 33.5249C234.448 33.5241 234.407 33.5127 234.371 33.4919C234.335 33.471 234.304 33.4413 234.283 33.4056L232.511 30.4025C232.484 30.3571 232.442 30.3217 232.393 30.3019C232.344 30.282 232.29 30.2787 232.239 30.2924C232.187 30.3061 232.142 30.3361 232.11 30.3778C232.077 30.4196 232.059 30.4708 232.058 30.5238L232.025 34.0105C232.024 34.0523 232.013 34.0931 231.992 34.1293C231.971 34.1654 231.941 34.1957 231.906 34.2172L228.903 35.9892C228.857 36.0165 228.822 36.0578 228.802 36.1069C228.782 36.156 228.779 36.2102 228.792 36.2614C228.806 36.3125 228.836 36.3579 228.878 36.3904C228.92 36.423 228.971 36.4411 229.024 36.442Z" stroke="#145DB8" stroke-width="0.46875" stroke-linecap="round" stroke-linejoin="round"/>
<path d="M261.024 36.442L264.511 36.4751C264.552 36.4759 264.593 36.4872 264.629 36.5081C264.665 36.529 264.696 36.5587 264.717 36.5944L266.489 39.5975C266.517 39.6429 266.558 39.6782 266.607 39.6981C266.656 39.718 266.71 39.7213 266.761 39.7076C266.813 39.6939 266.858 39.6639 266.89 39.6221C266.923 39.5804 266.941 39.5291 266.942 39.4762L266.975 35.9894C266.976 35.9477 266.987 35.9068 267.008 35.8707C267.029 35.8346 267.059 35.8043 267.094 35.7827L270.098 34.0107C270.143 33.9835 270.178 33.9422 270.198 33.8931C270.218 33.844 270.221 33.7897 270.208 33.7386C270.194 33.6874 270.164 33.6421 270.122 33.6095C270.08 33.5769 270.029 33.5588 269.976 33.558L266.489 33.5249C266.448 33.5241 266.407 33.5127 266.371 33.4919C266.335 33.471 266.304 33.4413 266.283 33.4056L264.511 30.4025C264.484 30.3571 264.442 30.3217 264.393 30.3019C264.344 30.282 264.29 30.2787 264.239 30.2924C264.187 30.3061 264.142 30.3361 264.11 30.3778C264.077 30.4196 264.059 30.4708 264.058 30.5238L264.025 34.0105C264.024 34.0523 264.013 34.0931 263.992 34.1293C263.971 34.1654 263.941 34.1957 263.906 34.2172L260.903 35.9892C260.857 36.0165 260.822 36.0578 260.802 36.1069C260.782 36.156 260.779 36.2102 260.792 36.2614C260.806 36.3125 260.836 36.3579 260.878 36.3904C260.92 36.423 260.971 36.4411 261.024 36.442Z" stroke="#145DB8" stroke-width="0.46875" stroke-linecap="round" stroke-linejoin="round"/>
<path d="M293.024 36.442L296.511 36.4751C296.552 36.4759 296.593 36.4872 296.629 36.5081C296.665 36.529 296.696 36.5587 296.717 36.5944L298.489 39.5975C298.517 39.6429 298.558 39.6782 298.607 39.6981C298.656 39.718 298.71 39.7213 298.761 39.7076C298.813 39.6939 298.858 39.6639 298.89 39.6221C298.923 39.5804 298.941 39.5291 298.942 39.4762L298.975 35.9894C298.976 35.9477 298.987 35.9068 299.008 35.8707C299.029 35.8346 299.059 35.8043 299.094 35.7827L302.098 34.0107C302.143 33.9835 302.178 33.9422 302.198 33.8931C302.218 33.844 302.221 33.7897 302.208 33.7386C302.194 33.6874 302.164 33.6421 302.122 33.6095C302.08 33.5769 302.029 33.5588 301.976 33.558L298.489 33.5249C298.448 33.5241 298.407 33.5127 298.371 33.4919C298.335 33.471 298.304 33.4413 298.283 33.4056L296.511 30.4025C296.484 30.3571 296.442 30.3217 296.393 30.3019C296.344 30.282 296.29 30.2787 296.239 30.2924C296.187 30.3061 296.142 30.3361 296.11 30.3778C296.077 30.4196 296.059 30.4708 296.058 30.5238L296.025 34.0105C296.024 34.0523 296.013 34.0931 295.992 34.1293C295.971 34.1654 295.941 34.1957 295.906 34.2172L292.903 35.9892C292.857 36.0165 292.822 36.0578 292.802 36.1069C292.782 36.156 292.779 36.2102 292.792 36.2614C292.806 36.3125 292.836 36.3579 292.878 36.3904C292.92 36.423 292.971 36.4411 293.024 36.442Z" stroke="#145DB8" stroke-width="0.46875" stroke-linecap="round" stroke-linejoin="round"/>
<path d="M325.024 36.442L328.511 36.4751C328.552 36.4759 328.593 36.4872 328.629 36.5081C328.665 36.529 328.696 36.5587 328.717 36.5944L330.489 39.5975C330.517 39.6429 330.558 39.6782 330.607 39.6981C330.656 39.718 330.71 39.7213 330.761 39.7076C330.813 39.6939 330.858 39.6639 330.89 39.6221C330.923 39.5804 330.941 39.5291 330.942 39.4762L330.975 35.9894C330.976 35.9477 330.987 35.9068 331.008 35.8707C331.029 35.8346 331.059 35.8043 331.094 35.7827L334.098 34.0107C334.143 33.9835 334.178 33.9422 334.198 33.8931C334.218 33.844 334.221 33.7897 334.208 33.7386C334.194 33.6874 334.164 33.6421 334.122 33.6095C334.08 33.5769 334.029 33.5588 333.976 33.558L330.489 33.5249C330.448 33.5241 330.407 33.5127 330.371 33.4919C330.335 33.471 330.304 33.4413 330.283 33.4056L328.511 30.4025C328.484 30.3571 328.442 30.3217 328.393 30.3019C328.344 30.282 328.29 30.2787 328.239 30.2924C328.187 30.3061 328.142 30.3361 328.11 30.3778C328.077 30.4196 328.059 30.4708 328.058 30.5238L328.025 34.0105C328.024 34.0523 328.013 34.0931 327.992 34.1293C327.971 34.1654 327.941 34.1957 327.906 34.2172L324.903 35.9892C324.857 36.0165 324.822 36.0578 324.802 36.1069C324.782 36.156 324.779 36.2102 324.792 36.2614C324.806 36.3125 324.836 36.3579 324.878 36.3904C324.92 36.423 324.971 36.4411 325.024 36.442Z" fill="url(#paint5_linear_1114_4091)" stroke="#145DB8" stroke-width="0.125" stroke-linecap="round" stroke-linejoin="round"/>
<defs>
<linearGradient id="paint0_linear_1114_4091" x1="70.4908" y1="4.99195" x2="76.5092" y2="11.008" gradientUnits="userSpaceOnUse">
<stop stop-color="#1877F2"/>
<stop offset="0.5" stop-color="#1877F2"/>
<stop offset="1" stop-color="#1877F2"/>
</linearGradient>
<linearGradient id="paint1_linear_1114_4091" x1="198.491" y1="4.99195" x2="204.509" y2="11.008" gradientUnits="userSpaceOnUse">
<stop stop-color="#1877F2"/>
<stop offset="0.5" stop-color="#1877F2"/>
<stop offset="1" stop-color="#1877F2"/>
</linearGradient>
<linearGradient id="paint2_linear_1114_4091" x1="326.491" y1="4.99195" x2="332.509" y2="11.008" gradientUnits="userSpaceOnUse">
<stop stop-color="#1877F2"/>
<stop offset="0.5" stop-color="#1877F2"/>
<stop offset="1" stop-color="#1877F2"/>
</linearGradient>
<linearGradient id="paint3_linear_1114_4091" x1="70.4908" y1="31.9919" x2="76.5092" y2="38.008" gradientUnits="userSpaceOnUse">
<stop stop-color="#1877F2"/>
<stop offset="0.5" stop-color="#1877F2"/>
<stop offset="1" stop-color="#1877F2"/>
</linearGradient>
<linearGradient id="paint4_linear_1114_4091" x1="198.491" y1="31.9919" x2="204.509" y2="38.008" gradientUnits="userSpaceOnUse">
<stop stop-color="#1877F2"/>
<stop offset="0.5" stop-color="#1877F2"/>
<stop offset="1" stop-color="#1877F2"/>
</linearGradient>
<linearGradient id="paint5_linear_1114_4091" x1="326.491" y1="31.9919" x2="332.509" y2="38.008" gradientUnits="userSpaceOnUse">
<stop stop-color="#1877F2"/>
<stop offset="0.5" stop-color="#1877F2"/>
<stop offset="1" stop-color="#1877F2"/>
</linearGradient>
</defs>
</svg>
