<svg width="56" height="56" viewBox="0 0 56 56" fill="none" xmlns="http://www.w3.org/2000/svg">
<rect width="55.9143" height="55.7793" rx="27.8896" fill="white"/>
<path d="M27.8896 35.3387C27.5525 35.3499 27.2211 35.4312 26.9687 35.5838L23.9394 37.3836C21.772 38.6638 20.454 37.7136 21.0243 35.2547L21.747 32.1365C21.861 31.5282 21.6202 30.7042 21.2021 30.2859L18.6796 27.7635C17.1967 26.2805 17.6781 24.7854 19.7441 24.4305L22.9765 23.8983C23.5213 23.8094 24.1672 23.3279 24.4081 22.8338L26.1952 19.2586C26.6659 18.3297 27.2755 17.8497 27.8896 17.8182V35.3387Z" fill="#05162C"/>
<path d="M27.8896 17.8198C28.5489 17.7861 29.2135 18.27 29.7188 19.2739L31.5059 22.8481C31.7467 23.3424 32.3935 23.8112 32.9385 23.9126L36.1709 24.4448C38.2365 24.7872 38.7182 26.2833 37.2354 27.7788L34.7129 30.3003C34.2947 30.7185 34.0541 31.5425 34.1934 32.1382L34.916 35.2563C35.4864 37.7153 34.1674 38.6791 32 37.3862L28.9707 35.5864C28.6782 35.4096 28.2802 35.3283 27.8896 35.3413V17.8198Z" fill="#05162C"/>
</svg>
