<svg width="24" height="24" viewBox="0 0 24 24" fill="none" xmlns="http://www.w3.org/2000/svg">
<rect width="24" height="24" rx="12" fill="white" fill-opacity="0.5"/>
<path fill-rule="evenodd" clip-rule="evenodd" d="M7.52062 4.14599C8.29246 4.08404 9.02515 3.78047 9.61462 3.27839C10.2802 2.7115 11.1259 2.40016 12.0002 2.40016C12.8745 2.40016 13.7202 2.7115 14.3858 3.27839C14.9753 3.78047 15.708 4.08404 16.4798 4.14599C17.3515 4.21566 18.1699 4.59355 18.7883 5.21191C19.4067 5.83028 19.7846 6.64868 19.8542 7.52039C19.9154 8.29199 20.219 9.02519 20.7218 9.61439C21.2887 10.28 21.6001 11.1257 21.6001 12C21.6001 12.8743 21.2887 13.72 20.7218 14.3856C20.2197 14.9751 19.9162 15.7078 19.8542 16.4796C19.7846 17.3513 19.4067 18.1697 18.7883 18.7881C18.1699 19.4064 17.3515 19.7843 16.4798 19.854C15.708 19.9159 14.9753 20.2195 14.3858 20.7216C13.7202 21.2885 12.8745 21.5998 12.0002 21.5998C11.1259 21.5998 10.2802 21.2885 9.61462 20.7216C9.02515 20.2195 8.29246 19.9159 7.52062 19.854C6.6489 19.7843 5.8305 19.4064 5.21214 18.7881C4.59378 18.1697 4.21589 17.3513 4.14622 16.4796C4.08427 15.7078 3.7807 14.9751 3.27862 14.3856C2.71173 13.72 2.40039 12.8743 2.40039 12C2.40039 11.1257 2.71173 10.28 3.27862 9.61439C3.7807 9.02492 4.08427 8.29223 4.14622 7.52039C4.21589 6.64868 4.59378 5.83028 5.21214 5.21191C5.8305 4.59355 6.6489 4.21566 7.52062 4.14599ZM16.4486 10.4484C16.6672 10.2221 16.7882 9.91895 16.7854 9.60431C16.7827 9.28968 16.6565 8.9887 16.434 8.76621C16.2115 8.54372 15.9105 8.41752 15.5959 8.41478C15.2813 8.41205 14.9781 8.533 14.7518 8.75159L10.8002 12.7032L9.24862 11.1516C9.0223 10.933 8.71918 10.8121 8.40454 10.8148C8.0899 10.8175 7.78893 10.9437 7.56644 11.1662C7.34395 11.3887 7.21775 11.6897 7.21501 12.0043C7.21228 12.3189 7.33323 12.6221 7.55182 12.8484L9.95182 15.2484C10.1769 15.4734 10.482 15.5997 10.8002 15.5997C11.1184 15.5997 11.4236 15.4734 11.6486 15.2484L16.4486 10.4484Z" fill="#145DB8"/>
</svg>
