<svg width="16" height="16" viewBox="0 0 16 16" fill="none" xmlns="http://www.w3.org/2000/svg">
<path fill-rule="evenodd" clip-rule="evenodd" d="M8.00007 0.833328C5.1466 0.833328 2.8334 3.14652 2.8334 6V6.4694C2.8334 6.93401 2.69587 7.38823 2.43815 7.77481L1.67242 8.92342C0.783686 10.2565 1.46216 12.0685 3.00789 12.4901C3.51163 12.6275 4.01962 12.7437 4.53056 12.8387L4.53183 12.8421C5.04449 14.2101 6.4147 15.1667 8.00002 15.1667C9.58535 15.1667 10.9556 14.2101 11.4682 12.8421L11.4695 12.8387C11.9805 12.7437 12.4885 12.6275 12.9923 12.4901C14.538 12.0685 15.2164 10.2565 14.3277 8.92342L13.562 7.77481C13.3043 7.38823 13.1667 6.93401 13.1667 6.4694V6C13.1667 3.14652 10.8535 0.833328 8.00007 0.833328ZM10.251 13.0246C8.7557 13.2033 7.24434 13.2033 5.74903 13.0246C6.223 13.7056 7.04738 14.1667 8.00002 14.1667C8.95266 14.1667 9.77704 13.7057 10.251 13.0246ZM3.8334 6C3.8334 3.69881 5.69888 1.83333 8.00007 1.83333C10.3013 1.83333 12.1667 3.69881 12.1667 6V6.4694C12.1667 7.13144 12.3627 7.77866 12.7299 8.32951L13.4957 9.47812C14.0058 10.2433 13.6164 11.2834 12.7291 11.5253C9.63296 12.3697 6.36717 12.3697 3.271 11.5253C2.38378 11.2834 1.99435 10.2433 2.50447 9.47812L3.2702 8.32951C3.63744 7.77866 3.8334 7.13144 3.8334 6.4694V6Z" fill="#05162C"/>
</svg>
